<?xml version="1.0" encoding="utf-8" standalone="no"?>
<!DOCTYPE svg PUBLIC "-//W3C//DTD SVG 1.1//EN"
  "http://www.w3.org/Graphics/SVG/1.1/DTD/svg11.dtd">
<svg xmlns:xlink="http://www.w3.org/1999/xlink" width="624.368125pt" height="137.439687pt" viewBox="0 0 624.368125 137.439687" xmlns="http://www.w3.org/2000/svg" version="1.1">
 <metadata>
  <rdf:RDF xmlns:dc="http://purl.org/dc/elements/1.1/" xmlns:cc="http://creativecommons.org/ns#" xmlns:rdf="http://www.w3.org/1999/02/22-rdf-syntax-ns#">
   <cc:Work>
    <dc:type rdf:resource="http://purl.org/dc/dcmitype/StillImage"/>
    <dc:date>2023-12-07T21:44:53.457348</dc:date>
    <dc:format>image/svg+xml</dc:format>
    <dc:creator>
     <cc:Agent>
      <dc:title>Matplotlib v3.7.1, https://matplotlib.org/</dc:title>
     </cc:Agent>
    </dc:creator>
   </cc:Work>
  </rdf:RDF>
 </metadata>
 <defs>
  <style type="text/css">*{stroke-linejoin: round; stroke-linecap: butt}</style>
 </defs>
 <g id="figure_1">
  <g id="patch_1">
   <path d="M 0 137.439687 
L 624.368125 137.439687 
L 624.368125 0 
L 0 0 
z
" style="fill: #ffffff"/>
  </g>
  <g id="axes_1">
   <g id="patch_2">
    <path d="M 54 104.22 
L 188.457831 104.22 
L 188.457831 7.2 
L 54 7.2 
z
" style="fill: #ffffff"/>
   </g>
   <g id="matplotlib.axis_1">
    <g id="xtick_1">
     <g id="line2d_1">
      <defs>
       <path id="mf22c82ab75" d="M 0 0 
L 0 3.5 
" style="stroke: #000000; stroke-width: 0.8"/>
      </defs>
      <g>
       <use xlink:href="#mf22c82ab75" x="56.571778" y="104.22" style="stroke: #000000; stroke-width: 0.8"/>
      </g>
     </g>
     <g id="text_1">
      <!-- 0 -->
      <g transform="translate(54.026778 117.29875) scale(0.08 -0.08)">
       <defs>
        <path id="DejaVuSans-30" d="M 2034 4250 
Q 1547 4250 1301 3770 
Q 1056 3291 1056 2328 
Q 1056 1369 1301 889 
Q 1547 409 2034 409 
Q 2525 409 2770 889 
Q 3016 1369 3016 2328 
Q 3016 3291 2770 3770 
Q 2525 4250 2034 4250 
z
M 2034 4750 
Q 2819 4750 3233 4129 
Q 3647 3509 3647 2328 
Q 3647 1150 3233 529 
Q 2819 -91 2034 -91 
Q 1250 -91 836 529 
Q 422 1150 422 2328 
Q 422 3509 836 4129 
Q 1250 4750 2034 4750 
z
" transform="scale(0.015625)"/>
       </defs>
       <use xlink:href="#DejaVuSans-30"/>
      </g>
     </g>
    </g>
    <g id="xtick_2">
     <g id="line2d_2">
      <g>
       <use xlink:href="#mf22c82ab75" x="122.514805" y="104.22" style="stroke: #000000; stroke-width: 0.8"/>
      </g>
     </g>
     <g id="text_2">
      <!-- 3K -->
      <g transform="translate(117.34668 117.29875) scale(0.08 -0.08)">
       <defs>
        <path id="DejaVuSans-33" d="M 2597 2516 
Q 3050 2419 3304 2112 
Q 3559 1806 3559 1356 
Q 3559 666 3084 287 
Q 2609 -91 1734 -91 
Q 1441 -91 1130 -33 
Q 819 25 488 141 
L 488 750 
Q 750 597 1062 519 
Q 1375 441 1716 441 
Q 2309 441 2620 675 
Q 2931 909 2931 1356 
Q 2931 1769 2642 2001 
Q 2353 2234 1838 2234 
L 1294 2234 
L 1294 2753 
L 1863 2753 
Q 2328 2753 2575 2939 
Q 2822 3125 2822 3475 
Q 2822 3834 2567 4026 
Q 2313 4219 1838 4219 
Q 1578 4219 1281 4162 
Q 984 4106 628 3988 
L 628 4550 
Q 988 4650 1302 4700 
Q 1616 4750 1894 4750 
Q 2613 4750 3031 4423 
Q 3450 4097 3450 3541 
Q 3450 3153 3228 2886 
Q 3006 2619 2597 2516 
z
" transform="scale(0.015625)"/>
        <path id="DejaVuSans-4b" d="M 628 4666 
L 1259 4666 
L 1259 2694 
L 3353 4666 
L 4166 4666 
L 1850 2491 
L 4331 0 
L 3500 0 
L 1259 2247 
L 1259 0 
L 628 0 
L 628 4666 
z
" transform="scale(0.015625)"/>
       </defs>
       <use xlink:href="#DejaVuSans-33"/>
       <use xlink:href="#DejaVuSans-4b" x="63.623047"/>
      </g>
     </g>
    </g>
    <g id="xtick_3">
     <g id="line2d_3">
      <g>
       <use xlink:href="#mf22c82ab75" x="188.457831" y="104.22" style="stroke: #000000; stroke-width: 0.8"/>
      </g>
     </g>
     <g id="text_3">
      <!-- 6K -->
      <g transform="translate(183.289706 117.29875) scale(0.08 -0.08)">
       <defs>
        <path id="DejaVuSans-36" d="M 2113 2584 
Q 1688 2584 1439 2293 
Q 1191 2003 1191 1497 
Q 1191 994 1439 701 
Q 1688 409 2113 409 
Q 2538 409 2786 701 
Q 3034 994 3034 1497 
Q 3034 2003 2786 2293 
Q 2538 2584 2113 2584 
z
M 3366 4563 
L 3366 3988 
Q 3128 4100 2886 4159 
Q 2644 4219 2406 4219 
Q 1781 4219 1451 3797 
Q 1122 3375 1075 2522 
Q 1259 2794 1537 2939 
Q 1816 3084 2150 3084 
Q 2853 3084 3261 2657 
Q 3669 2231 3669 1497 
Q 3669 778 3244 343 
Q 2819 -91 2113 -91 
Q 1303 -91 875 529 
Q 447 1150 447 2328 
Q 447 3434 972 4092 
Q 1497 4750 2381 4750 
Q 2619 4750 2861 4703 
Q 3103 4656 3366 4563 
z
" transform="scale(0.015625)"/>
       </defs>
       <use xlink:href="#DejaVuSans-36"/>
       <use xlink:href="#DejaVuSans-4b" x="63.623047"/>
      </g>
     </g>
    </g>
   </g>
   <g id="matplotlib.axis_2">
    <g id="ytick_1">
     <g id="line2d_4">
      <defs>
       <path id="m4f6b8bf3e8" d="M 0 0 
L -3.5 0 
" style="stroke: #000000; stroke-width: 0.8"/>
      </defs>
      <g>
       <use xlink:href="#m4f6b8bf3e8" x="54" y="104.22" style="stroke: #000000; stroke-width: 0.8"/>
      </g>
     </g>
     <g id="text_4">
      <!-- 0.0 -->
      <g transform="translate(34.2775 107.259375) scale(0.08 -0.08)">
       <defs>
        <path id="DejaVuSans-2e" d="M 684 794 
L 1344 794 
L 1344 0 
L 684 0 
L 684 794 
z
" transform="scale(0.015625)"/>
       </defs>
       <use xlink:href="#DejaVuSans-30"/>
       <use xlink:href="#DejaVuSans-2e" x="63.623047"/>
       <use xlink:href="#DejaVuSans-30" x="95.410156"/>
      </g>
     </g>
    </g>
    <g id="ytick_2">
     <g id="line2d_5">
      <g>
       <use xlink:href="#m4f6b8bf3e8" x="54" y="85.74" style="stroke: #000000; stroke-width: 0.8"/>
      </g>
     </g>
     <g id="text_5">
      <!-- 0.2 -->
      <g transform="translate(34.2775 88.779375) scale(0.08 -0.08)">
       <defs>
        <path id="DejaVuSans-32" d="M 1228 531 
L 3431 531 
L 3431 0 
L 469 0 
L 469 531 
Q 828 903 1448 1529 
Q 2069 2156 2228 2338 
Q 2531 2678 2651 2914 
Q 2772 3150 2772 3378 
Q 2772 3750 2511 3984 
Q 2250 4219 1831 4219 
Q 1534 4219 1204 4116 
Q 875 4013 500 3803 
L 500 4441 
Q 881 4594 1212 4672 
Q 1544 4750 1819 4750 
Q 2544 4750 2975 4387 
Q 3406 4025 3406 3419 
Q 3406 3131 3298 2873 
Q 3191 2616 2906 2266 
Q 2828 2175 2409 1742 
Q 1991 1309 1228 531 
z
" transform="scale(0.015625)"/>
       </defs>
       <use xlink:href="#DejaVuSans-30"/>
       <use xlink:href="#DejaVuSans-2e" x="63.623047"/>
       <use xlink:href="#DejaVuSans-32" x="95.410156"/>
      </g>
     </g>
    </g>
    <g id="ytick_3">
     <g id="line2d_6">
      <g>
       <use xlink:href="#m4f6b8bf3e8" x="54" y="67.26" style="stroke: #000000; stroke-width: 0.8"/>
      </g>
     </g>
     <g id="text_6">
      <!-- 0.4 -->
      <g transform="translate(34.2775 70.299375) scale(0.08 -0.08)">
       <defs>
        <path id="DejaVuSans-34" d="M 2419 4116 
L 825 1625 
L 2419 1625 
L 2419 4116 
z
M 2253 4666 
L 3047 4666 
L 3047 1625 
L 3713 1625 
L 3713 1100 
L 3047 1100 
L 3047 0 
L 2419 0 
L 2419 1100 
L 313 1100 
L 313 1709 
L 2253 4666 
z
" transform="scale(0.015625)"/>
       </defs>
       <use xlink:href="#DejaVuSans-30"/>
       <use xlink:href="#DejaVuSans-2e" x="63.623047"/>
       <use xlink:href="#DejaVuSans-34" x="95.410156"/>
      </g>
     </g>
    </g>
    <g id="ytick_4">
     <g id="line2d_7">
      <g>
       <use xlink:href="#m4f6b8bf3e8" x="54" y="48.78" style="stroke: #000000; stroke-width: 0.8"/>
      </g>
     </g>
     <g id="text_7">
      <!-- 0.6 -->
      <g transform="translate(34.2775 51.819375) scale(0.08 -0.08)">
       <use xlink:href="#DejaVuSans-30"/>
       <use xlink:href="#DejaVuSans-2e" x="63.623047"/>
       <use xlink:href="#DejaVuSans-36" x="95.410156"/>
      </g>
     </g>
    </g>
    <g id="ytick_5">
     <g id="line2d_8">
      <g>
       <use xlink:href="#m4f6b8bf3e8" x="54" y="30.3" style="stroke: #000000; stroke-width: 0.8"/>
      </g>
     </g>
     <g id="text_8">
      <!-- 0.8 -->
      <g transform="translate(34.2775 33.339375) scale(0.08 -0.08)">
       <defs>
        <path id="DejaVuSans-38" d="M 2034 2216 
Q 1584 2216 1326 1975 
Q 1069 1734 1069 1313 
Q 1069 891 1326 650 
Q 1584 409 2034 409 
Q 2484 409 2743 651 
Q 3003 894 3003 1313 
Q 3003 1734 2745 1975 
Q 2488 2216 2034 2216 
z
M 1403 2484 
Q 997 2584 770 2862 
Q 544 3141 544 3541 
Q 544 4100 942 4425 
Q 1341 4750 2034 4750 
Q 2731 4750 3128 4425 
Q 3525 4100 3525 3541 
Q 3525 3141 3298 2862 
Q 3072 2584 2669 2484 
Q 3125 2378 3379 2068 
Q 3634 1759 3634 1313 
Q 3634 634 3220 271 
Q 2806 -91 2034 -91 
Q 1263 -91 848 271 
Q 434 634 434 1313 
Q 434 1759 690 2068 
Q 947 2378 1403 2484 
z
M 1172 3481 
Q 1172 3119 1398 2916 
Q 1625 2713 2034 2713 
Q 2441 2713 2670 2916 
Q 2900 3119 2900 3481 
Q 2900 3844 2670 4047 
Q 2441 4250 2034 4250 
Q 1625 4250 1398 4047 
Q 1172 3844 1172 3481 
z
" transform="scale(0.015625)"/>
       </defs>
       <use xlink:href="#DejaVuSans-30"/>
       <use xlink:href="#DejaVuSans-2e" x="63.623047"/>
       <use xlink:href="#DejaVuSans-38" x="95.410156"/>
      </g>
     </g>
    </g>
    <g id="ytick_6">
     <g id="line2d_9">
      <g>
       <use xlink:href="#m4f6b8bf3e8" x="54" y="11.82" style="stroke: #000000; stroke-width: 0.8"/>
      </g>
     </g>
     <g id="text_9">
      <!-- 1.0 -->
      <g transform="translate(34.2775 14.859375) scale(0.08 -0.08)">
       <defs>
        <path id="DejaVuSans-31" d="M 794 531 
L 1825 531 
L 1825 4091 
L 703 3866 
L 703 4441 
L 1819 4666 
L 2450 4666 
L 2450 531 
L 3481 531 
L 3481 0 
L 794 0 
L 794 531 
z
" transform="scale(0.015625)"/>
       </defs>
       <use xlink:href="#DejaVuSans-31"/>
       <use xlink:href="#DejaVuSans-2e" x="63.623047"/>
       <use xlink:href="#DejaVuSans-30" x="95.410156"/>
      </g>
     </g>
    </g>
   </g>
   <g id="line2d_10">
    <path d="M 57.231208 83.274153 
L 57.451018 83.218741 
L 57.670828 77.926867 
L 57.890639 58.643388 
L 58.110449 74.602129 
L 58.330259 74.657541 
L 58.550069 68.423658 
L 58.989689 93.414603 
L 59.429309 94.495142 
L 59.649119 94.966147 
L 59.868929 78.702639 
L 60.088739 73.189115 
L 60.30855 57.091844 
L 60.74817 84.465517 
L 60.96798 81.417841 
L 61.18779 84.354693 
L 61.4076 95.187796 
L 61.62741 77.926867 
L 61.84722 70.141439 
L 62.06703 73.161409 
L 62.28684 67.869535 
L 62.50665 70.307676 
L 62.726461 82.055082 
L 63.166081 57.008726 
L 63.385891 67.453943 
L 63.605701 64.267736 
L 63.825511 63.990675 
L 64.045321 58.421739 
L 64.265131 66.207166 
L 64.484941 55.817361 
L 64.924561 72.828936 
L 65.364182 101.726447 
L 65.583992 90.172984 
L 65.803802 94.827616 
L 66.023612 89.147856 
L 66.243422 74.712954 
L 66.463232 68.617601 
L 66.683042 96.767046 
L 66.902852 83.301859 
L 67.122662 77.954573 
L 67.342472 86.183298 
L 67.562282 86.404948 
L 67.782093 83.218741 
L 68.001903 85.906237 
L 68.221713 91.05958 
L 68.441523 80.171064 
L 68.661333 85.268996 
L 69.100953 75.294783 
L 69.320763 67.509355 
L 69.540573 79.035112 
L 69.760383 79.561529 
L 69.980193 81.528666 
L 70.200004 70.529325 
L 70.419814 68.091184 
L 70.639624 45.704618 
L 70.859434 51.051904 
L 71.079244 31.713013 
L 71.518864 53.406927 
L 71.738674 70.418501 
L 71.958484 53.988756 
L 72.178294 79.145937 
L 72.398104 79.533823 
L 72.837725 85.075052 
L 73.277345 90.145277 
L 73.497155 79.367586 
L 74.156585 104.22 
L 74.376395 95.464858 
L 74.596205 95.270915 
L 74.816015 89.923628 
L 75.035825 72.912054 
L 75.255636 69.975202 
L 75.475446 65.071214 
L 75.695256 72.912054 
L 75.915066 59.252924 
L 76.134876 74.075712 
L 76.354686 72.108576 
L 76.794306 77.649805 
L 77.014116 83.495802 
L 77.453736 76.763208 
L 77.673547 51.522909 
L 77.893357 54.570585 
L 78.113167 59.225217 
L 78.332977 56.177541 
L 78.552787 44.624078 
L 78.772597 74.906897 
L 78.992407 80.143358 
L 79.212217 54.930765 
L 79.432027 55.263238 
L 79.651837 58.809625 
L 79.871647 56.205247 
L 80.091458 56.011304 
L 80.531078 70.030615 
L 80.750888 72.995172 
L 80.970698 81.334723 
L 81.190508 81.473253 
L 81.410318 84.437811 
L 81.630128 67.758711 
L 81.849938 75.461019 
L 82.069748 67.010645 
L 82.289558 42.102819 
L 82.509369 45.261319 
L 82.729179 53.905637 
L 82.948989 37.309655 
L 83.168799 42.961709 
L 83.388609 62.716192 
L 83.608419 59.585397 
L 83.828229 64.711034 
L 84.267849 82.055082 
L 84.487659 79.256762 
L 84.707469 95.52027 
L 84.927279 87.069895 
L 85.14709 89.674273 
L 85.3669 73.383058 
L 85.58671 72.967466 
L 86.02633 57.008726 
L 86.24614 54.570585 
L 86.46595 60.028696 
L 86.68576 35.010045 
L 86.90557 26.171784 
L 87.34519 47.976522 
L 87.565001 49.915952 
L 88.004621 94.661379 
L 88.883861 39.027436 
L 89.103671 11.82 
L 89.763101 71.055742 
L 89.982912 70.750975 
L 90.422532 91.530585 
L 90.642342 72.413343 
L 90.862152 69.781259 
L 91.301772 87.263838 
L 91.521582 59.917871 
L 91.741392 76.68009 
L 91.961202 75.904318 
L 92.181012 67.841829 
L 92.400823 64.794153 
L 92.620633 84.216162 
L 93.060253 51.162729 
L 93.280063 53.351514 
L 93.499873 45.233613 
L 93.719683 31.38054 
L 93.939493 51.190435 
L 94.159303 50.442369 
L 94.379113 50.5809 
L 94.598923 53.794813 
L 94.818733 54.09958 
L 95.038544 47.865697 
L 95.258354 54.238111 
L 95.478164 70.363088 
L 95.697974 64.295442 
L 95.917784 75.571844 
L 96.137594 64.766447 
L 96.357404 64.572504 
L 96.577214 62.051244 
L 96.797024 78.647226 
L 97.016834 69.808966 
L 97.236644 78.065397 
L 97.456455 94.578261 
L 97.676265 72.607286 
L 97.896075 70.307676 
L 98.115885 79.035112 
L 98.335695 79.145937 
L 98.555505 71.00033 
L 98.775315 87.984198 
L 98.995125 84.825697 
L 99.434745 70.529325 
L 99.654555 42.546117 
L 99.874366 50.026777 
L 100.094176 47.062219 
L 100.313986 49.777421 
L 100.533796 57.950735 
L 100.753606 74.823778 
L 100.973416 58.975862 
L 101.193226 53.24069 
L 101.413036 56.094423 
L 101.632846 53.711694 
L 101.852656 70.390795 
L 102.072466 70.002909 
L 102.292277 84.271574 
L 102.512087 78.758051 
L 102.731897 78.397871 
L 102.951707 53.60087 
L 103.171517 67.26 
L 103.391327 55.983598 
L 103.830947 55.374063 
L 104.050757 65.736162 
L 104.270567 55.290945 
L 104.490377 66.234873 
L 104.710187 55.734243 
L 104.929998 56.03901 
L 105.149808 53.822519 
L 105.369618 48.281289 
L 105.589428 54.210405 
L 106.029048 75.876612 
L 106.248858 78.785757 
L 106.468668 78.425577 
L 106.688478 75.987436 
L 106.908288 82.249025 
L 107.128098 68.83925 
L 107.347909 80.669775 
L 107.567719 72.413343 
L 107.787529 68.645307 
L 108.007339 57.452024 
L 108.227149 59.557691 
L 108.446959 36.617001 
L 108.666769 52.658861 
L 108.886579 41.770345 
L 109.106389 47.228456 
L 109.326199 41.714933 
L 109.546009 49.971364 
L 109.76582 45.593793 
L 109.98563 45.981679 
L 110.20544 32.156312 
L 110.42525 32.405667 
L 110.64506 40.689805 
L 110.86487 37.752954 
L 111.5243 73.244528 
L 111.74411 58.726507 
L 112.403541 41.576402 
L 112.623351 41.908876 
L 112.843161 53.323808 
L 113.062971 53.462339 
L 113.282781 53.351514 
L 113.722401 35.924348 
L 114.381831 45.178201 
L 114.601641 65.182039 
L 114.821452 65.514513 
L 115.041262 60.305757 
L 115.261072 59.613103 
L 115.480882 62.078951 
L 115.700692 48.308996 
L 115.920502 56.787076 
L 116.360122 81.778021 
L 116.799742 70.196852 
L 117.019552 59.169805 
L 117.239363 37.78066 
L 117.459173 31.823838 
L 117.678983 29.468816 
L 117.898793 29.330285 
L 118.118603 26.227196 
L 118.558223 54.09958 
L 118.778033 53.961049 
L 118.997843 59.41916 
L 119.217653 78.896582 
L 119.437463 81.390135 
L 119.657274 68.091184 
L 119.877084 62.411424 
L 120.096894 65.902399 
L 120.316704 57.618261 
L 120.536514 34.926927 
L 120.756324 40.274213 
L 120.976134 57.562849 
L 121.195944 54.210405 
L 121.415754 43.183358 
L 121.635564 59.696222 
L 121.855374 56.925607 
L 121.855374 56.925607 
" clip-path="url(#pca11c2e32c)" style="fill: none; stroke: #2ca02c; stroke-linecap: square"/>
   </g>
   <g id="line2d_11">
    <path d="M 57.231208 83.274153 
L 57.451018 83.218741 
L 57.670828 77.926867 
L 57.890639 58.643388 
L 58.110449 74.602129 
L 58.330259 74.657541 
L 58.550069 68.423658 
L 58.989689 93.414603 
L 59.429309 94.495142 
L 59.649119 94.966147 
L 59.868929 78.702639 
L 60.088739 73.189115 
L 60.30855 57.091844 
L 60.74817 84.465517 
L 60.96798 81.417841 
L 61.18779 84.354693 
L 61.4076 95.187796 
L 61.62741 77.926867 
L 61.84722 70.141439 
L 62.06703 73.161409 
L 62.28684 67.869535 
L 62.50665 70.307676 
L 62.726461 82.055082 
L 63.166081 57.008726 
L 63.385891 67.453943 
L 63.605701 64.267736 
L 63.825511 63.990675 
L 64.045321 58.421739 
L 64.265131 66.207166 
L 64.484941 55.817361 
L 64.924561 72.828936 
L 65.364182 101.726447 
L 65.583992 90.172984 
L 65.803802 94.827616 
L 66.023612 89.147856 
L 66.243422 74.712954 
L 66.463232 68.617601 
L 66.683042 96.767046 
L 66.902852 83.301859 
L 67.122662 77.954573 
L 67.342472 86.183298 
L 67.562282 86.404948 
L 67.782093 83.218741 
L 68.001903 85.906237 
L 68.221713 91.05958 
L 68.441523 80.171064 
L 68.661333 85.268996 
L 69.100953 75.294783 
L 69.320763 67.509355 
L 69.540573 79.035112 
L 69.760383 79.561529 
L 69.980193 81.528666 
L 70.200004 70.529325 
L 70.419814 68.091184 
L 70.639624 45.704618 
L 70.859434 51.051904 
L 71.079244 31.713013 
L 71.518864 53.406927 
L 71.738674 70.418501 
L 71.958484 53.988756 
L 72.178294 79.145937 
L 72.398104 79.533823 
L 72.837725 85.075052 
L 73.277345 90.145277 
L 73.497155 79.367586 
L 74.156585 104.22 
L 74.376395 95.464858 
L 74.596205 95.270915 
L 74.816015 89.923628 
L 75.035825 72.912054 
L 75.255636 69.975202 
L 75.475446 65.071214 
L 75.695256 72.912054 
L 75.915066 59.252924 
L 76.134876 74.075712 
L 76.354686 72.108576 
L 76.794306 77.649805 
L 77.014116 83.495802 
L 77.453736 76.763208 
L 77.673547 51.522909 
L 77.893357 54.570585 
L 78.113167 59.225217 
L 78.332977 56.177541 
L 78.552787 44.624078 
L 78.772597 74.906897 
L 78.992407 80.143358 
L 79.212217 54.930765 
L 79.432027 55.263238 
L 79.651837 58.809625 
L 79.871647 56.205247 
L 80.091458 56.011304 
L 80.531078 70.030615 
L 80.750888 72.995172 
L 80.970698 81.334723 
L 81.190508 81.473253 
L 81.410318 84.437811 
L 81.630128 67.758711 
L 81.849938 75.461019 
L 82.069748 67.010645 
L 82.289558 42.102819 
L 82.509369 45.261319 
L 82.729179 53.905637 
L 82.948989 37.309655 
L 83.168799 42.961709 
L 83.388609 62.716192 
L 83.608419 59.585397 
L 83.828229 64.711034 
L 84.267849 82.055082 
L 84.487659 79.256762 
L 84.707469 95.52027 
L 84.927279 87.069895 
L 85.14709 89.674273 
L 85.3669 73.383058 
L 85.58671 72.967466 
L 86.02633 57.008726 
L 86.24614 54.570585 
L 86.46595 60.028696 
L 86.68576 35.010045 
L 86.90557 26.171784 
L 87.34519 47.976522 
L 87.565001 49.915952 
L 88.004621 94.661379 
L 88.883861 39.027436 
L 89.103671 11.82 
L 89.763101 71.055742 
L 89.982912 70.750975 
L 90.422532 91.530585 
L 90.642342 72.413343 
L 90.862152 69.781259 
L 91.301772 87.263838 
L 91.521582 59.917871 
L 91.741392 76.68009 
L 91.961202 75.904318 
L 92.181012 67.841829 
L 92.400823 64.794153 
L 92.620633 84.216162 
L 93.060253 51.162729 
L 93.280063 53.351514 
L 93.499873 45.233613 
L 93.719683 31.38054 
L 93.939493 51.190435 
L 94.159303 50.442369 
L 94.379113 50.5809 
L 94.598923 53.794813 
L 94.818733 54.09958 
L 95.038544 47.865697 
L 95.258354 54.238111 
L 95.478164 70.363088 
L 95.697974 64.295442 
L 95.917784 75.571844 
L 96.137594 64.766447 
L 96.357404 64.572504 
L 96.577214 62.051244 
L 96.797024 78.647226 
L 97.016834 69.808966 
L 97.236644 78.065397 
L 97.456455 94.578261 
L 97.676265 72.607286 
L 97.896075 70.307676 
L 98.115885 79.035112 
L 98.335695 79.145937 
L 98.555505 71.00033 
L 98.775315 87.984198 
L 98.995125 84.825697 
L 99.434745 70.529325 
L 99.654555 42.546117 
L 99.874366 50.026777 
L 100.094176 47.062219 
L 100.313986 49.777421 
L 100.533796 57.950735 
L 100.753606 74.823778 
L 100.973416 58.975862 
L 101.193226 53.24069 
L 101.413036 56.094423 
L 101.632846 53.711694 
L 101.852656 70.390795 
L 102.072466 70.002909 
L 102.292277 84.271574 
L 102.512087 78.758051 
L 102.731897 78.397871 
L 102.951707 53.60087 
L 103.171517 67.26 
L 103.391327 55.983598 
L 103.830947 55.374063 
L 104.050757 65.736162 
L 104.270567 55.290945 
L 104.490377 66.234873 
L 104.710187 55.734243 
L 104.929998 56.03901 
L 105.149808 53.822519 
L 105.369618 48.281289 
L 105.589428 54.210405 
L 106.029048 75.876612 
L 106.248858 78.785757 
L 106.468668 78.425577 
L 106.688478 75.987436 
L 106.908288 82.249025 
L 107.128098 68.83925 
L 107.347909 80.669775 
L 107.567719 72.413343 
L 107.787529 68.645307 
L 108.007339 57.452024 
L 108.227149 59.557691 
L 108.446959 36.617001 
L 108.666769 52.658861 
L 108.886579 41.770345 
L 109.106389 47.228456 
L 109.326199 41.714933 
L 109.546009 49.971364 
L 109.76582 45.593793 
L 109.98563 45.981679 
L 110.20544 32.156312 
L 110.42525 32.405667 
L 110.64506 40.689805 
L 110.86487 37.752954 
L 111.5243 73.244528 
L 111.74411 58.726507 
L 112.403541 41.576402 
L 112.623351 41.908876 
L 112.843161 53.323808 
L 113.062971 53.462339 
L 113.282781 53.351514 
L 113.722401 35.924348 
L 114.381831 45.178201 
L 114.601641 65.182039 
L 114.821452 65.514513 
L 115.041262 60.305757 
L 115.261072 59.613103 
L 115.480882 62.078951 
L 115.700692 48.308996 
L 115.920502 56.787076 
L 116.360122 81.778021 
L 116.799742 70.196852 
L 117.019552 59.169805 
L 117.239363 37.78066 
L 117.459173 31.823838 
L 117.678983 29.468816 
L 117.898793 29.330285 
L 118.118603 26.227196 
L 118.558223 54.09958 
L 118.778033 53.961049 
L 118.997843 59.41916 
L 119.217653 78.896582 
L 119.437463 81.390135 
L 119.657274 68.091184 
L 119.877084 62.411424 
L 120.096894 65.902399 
L 120.316704 57.618261 
L 120.536514 34.926927 
L 120.756324 40.274213 
L 120.976134 57.562849 
L 121.195944 54.210405 
L 121.415754 43.183358 
L 121.635564 59.696222 
L 121.855374 56.925607 
L 121.855374 56.925607 
" clip-path="url(#pca11c2e32c)" style="fill: none; stroke: #2ca02c; stroke-linecap: square"/>
   </g>
   <g id="patch_3">
    <path d="M 54 104.22 
L 54 7.2 
" style="fill: none; stroke: #000000; stroke-width: 0.8; stroke-linejoin: miter; stroke-linecap: square"/>
   </g>
   <g id="patch_4">
    <path d="M 188.457831 104.22 
L 188.457831 7.2 
" style="fill: none; stroke: #000000; stroke-width: 0.8; stroke-linejoin: miter; stroke-linecap: square"/>
   </g>
   <g id="patch_5">
    <path d="M 54 104.22 
L 188.457831 104.22 
" style="fill: none; stroke: #000000; stroke-width: 0.8; stroke-linejoin: miter; stroke-linecap: square"/>
   </g>
   <g id="patch_6">
    <path d="M 54 7.2 
L 188.457831 7.2 
" style="fill: none; stroke: #000000; stroke-width: 0.8; stroke-linejoin: miter; stroke-linecap: square"/>
   </g>
  </g>
  <g id="axes_2">
   <g id="patch_7">
    <path d="M 195.180723 104.22 
L 329.638554 104.22 
L 329.638554 7.2 
L 195.180723 7.2 
z
" style="fill: #ffffff"/>
   </g>
   <g id="matplotlib.axis_3">
    <g id="xtick_4">
     <g id="line2d_12">
      <g>
       <use xlink:href="#mf22c82ab75" x="199.611282" y="104.22" style="stroke: #000000; stroke-width: 0.8"/>
      </g>
     </g>
     <g id="text_10">
      <!-- 0 -->
      <g transform="translate(197.066282 117.29875) scale(0.08 -0.08)">
       <use xlink:href="#DejaVuSans-30"/>
      </g>
     </g>
    </g>
    <g id="xtick_5">
     <g id="line2d_13">
      <g>
       <use xlink:href="#mf22c82ab75" x="228.506231" y="104.22" style="stroke: #000000; stroke-width: 0.8"/>
      </g>
     </g>
     <g id="text_11">
      <!-- 600 -->
      <g transform="translate(220.871231 117.29875) scale(0.08 -0.08)">
       <use xlink:href="#DejaVuSans-36"/>
       <use xlink:href="#DejaVuSans-30" x="63.623047"/>
       <use xlink:href="#DejaVuSans-30" x="127.246094"/>
      </g>
     </g>
    </g>
    <g id="xtick_6">
     <g id="line2d_14">
      <g>
       <use xlink:href="#mf22c82ab75" x="262.217006" y="104.22" style="stroke: #000000; stroke-width: 0.8"/>
      </g>
     </g>
     <g id="text_12">
      <!-- 1K -->
      <g transform="translate(257.048881 117.29875) scale(0.08 -0.08)">
       <use xlink:href="#DejaVuSans-31"/>
       <use xlink:href="#DejaVuSans-4b" x="63.623047"/>
      </g>
     </g>
    </g>
    <g id="xtick_7">
     <g id="line2d_15">
      <g>
       <use xlink:href="#mf22c82ab75" x="295.92778" y="104.22" style="stroke: #000000; stroke-width: 0.8"/>
      </g>
     </g>
     <g id="text_13">
      <!-- 2K -->
      <g transform="translate(290.759655 117.29875) scale(0.08 -0.08)">
       <use xlink:href="#DejaVuSans-32"/>
       <use xlink:href="#DejaVuSans-4b" x="63.623047"/>
      </g>
     </g>
    </g>
    <g id="xtick_8">
     <g id="line2d_16">
      <g>
       <use xlink:href="#mf22c82ab75" x="329.638554" y="104.22" style="stroke: #000000; stroke-width: 0.8"/>
      </g>
     </g>
     <g id="text_14">
      <!-- 2K -->
      <g transform="translate(324.470429 117.29875) scale(0.08 -0.08)">
       <use xlink:href="#DejaVuSans-32"/>
       <use xlink:href="#DejaVuSans-4b" x="63.623047"/>
      </g>
     </g>
    </g>
   </g>
   <g id="matplotlib.axis_4">
    <g id="ytick_7">
     <g id="line2d_17">
      <g>
       <use xlink:href="#m4f6b8bf3e8" x="195.180723" y="104.22" style="stroke: #000000; stroke-width: 0.8"/>
      </g>
     </g>
    </g>
    <g id="ytick_8">
     <g id="line2d_18">
      <g>
       <use xlink:href="#m4f6b8bf3e8" x="195.180723" y="85.74" style="stroke: #000000; stroke-width: 0.8"/>
      </g>
     </g>
    </g>
    <g id="ytick_9">
     <g id="line2d_19">
      <g>
       <use xlink:href="#m4f6b8bf3e8" x="195.180723" y="67.26" style="stroke: #000000; stroke-width: 0.8"/>
      </g>
     </g>
    </g>
    <g id="ytick_10">
     <g id="line2d_20">
      <g>
       <use xlink:href="#m4f6b8bf3e8" x="195.180723" y="48.78" style="stroke: #000000; stroke-width: 0.8"/>
      </g>
     </g>
    </g>
    <g id="ytick_11">
     <g id="line2d_21">
      <g>
       <use xlink:href="#m4f6b8bf3e8" x="195.180723" y="30.3" style="stroke: #000000; stroke-width: 0.8"/>
      </g>
     </g>
    </g>
    <g id="ytick_12">
     <g id="line2d_22">
      <g>
       <use xlink:href="#m4f6b8bf3e8" x="195.180723" y="11.82" style="stroke: #000000; stroke-width: 0.8"/>
      </g>
     </g>
    </g>
   </g>
   <g id="line2d_23">
    <path d="M 201.056029 77.473537 
L 202.019194 74.325882 
L 202.500777 74.291482 
L 202.982359 82.943232 
L 203.463942 77.697141 
L 203.945524 81.085599 
L 204.427107 81.016798 
L 204.908689 79.227967 
L 205.390272 73.999077 
L 205.871854 84.59446 
L 206.353437 81.068399 
L 206.835019 81.033999 
L 207.798184 84.319255 
L 208.279767 80.741593 
L 208.761349 85.867282 
L 209.242932 89.18694 
L 209.724514 94.295428 
L 210.206097 90.734966 
L 210.687679 94.295428 
L 211.169262 94.243827 
L 211.650844 85.557677 
L 212.132427 67.342561 
L 212.614009 76.389918 
L 213.095592 76.424319 
L 213.577174 76.733924 
L 214.058757 85.695279 
L 214.540339 104.22 
L 215.021921 104.065197 
L 215.503504 104.099598 
L 215.985086 102.207565 
L 217.911416 102.155964 
L 218.392999 103.789993 
L 219.837746 103.738392 
L 220.319329 103.428786 
L 220.800911 101.674356 
L 221.282494 98.199896 
L 222.245659 94.467431 
L 222.727241 87.570112 
L 223.208824 82.530424 
L 223.690406 78.935562 
L 224.653571 68.632584 
L 225.135154 68.649784 
L 225.616736 68.529382 
L 226.098319 70.301013 
L 227.061484 66.602949 
L 227.543066 71.90064 
L 228.024649 78.866761 
L 228.506231 84.198853 
L 228.987814 87.673313 
L 229.469396 96.600268 
L 229.950979 98.337498 
L 230.432561 87.690514 
L 230.914144 69.286195 
L 231.395726 56.26557 
L 232.358891 19.783738 
L 232.840474 12.250007 
L 234.285221 12.318809 
L 238.137881 12.250007 
L 241.027376 11.923202 
L 242.953706 11.957602 
L 247.287948 11.888801 
L 248.732696 11.888801 
L 250.177443 11.82 
L 250.659026 13.694832 
L 252.103773 13.798034 
L 252.585356 13.798034 
L 253.066938 11.888801 
L 253.548521 11.871601 
L 254.030103 13.746433 
L 255.956433 13.763634 
L 256.438016 11.888801 
L 258.845928 11.957602 
L 260.290676 11.888801 
L 261.735423 11.940402 
L 262.698588 15.621266 
L 264.143336 15.552465 
L 265.106501 11.906001 
L 266.069665 11.940402 
L 271.848655 11.923202 
L 272.330238 13.712033 
L 273.293403 13.815235 
L 274.256568 13.832435 
L 274.73815 11.992003 
L 275.219733 11.923202 
L 275.701315 13.780834 
L 277.627645 13.677632 
L 278.109228 11.8372 
L 282.925053 11.923202 
L 283.406635 11.974803 
L 283.888218 13.763634 
L 285.814548 13.660432 
L 286.29613 11.871601 
L 288.22246 11.906001 
L 290.14879 12.043604 
L 290.630372 13.866835 
L 291.593537 13.798034 
L 292.07512 15.569665 
L 292.556702 15.552465 
L 293.038285 13.712033 
L 294.00145 13.712033 
L 294.483032 11.854401 
L 296.409362 11.957602 
L 297.85411 11.992003 
L 299.298857 11.871601 
L 300.262022 11.940402 
L 300.743605 13.815235 
L 302.669935 13.746433 
L 303.151517 11.906001 
L 304.114682 11.992003 
L 304.596265 13.815235 
L 306.522595 13.694832 
L 307.004177 11.940402 
L 307.48576 13.763634 
L 307.967342 13.866835 
L 309.41209 13.815235 
L 309.893672 11.992003 
L 310.375255 13.866835 
L 312.301585 13.866835 
L 312.783167 13.729233 
L 316.635827 13.763634 
L 317.117409 15.535264 
L 317.598992 13.763634 
L 318.562157 13.694832 
L 318.562157 13.694832 
" clip-path="url(#pfc5e85e7aa)" style="fill: none; stroke: #2ca02c; stroke-linecap: square"/>
   </g>
   <g id="line2d_24">
    <path d="M 201.056029 77.473537 
L 202.019194 74.325882 
L 202.500777 74.291482 
L 202.982359 82.943232 
L 203.463942 77.697141 
L 203.945524 81.085599 
L 204.427107 81.016798 
L 204.908689 79.227967 
L 205.390272 73.999077 
L 205.871854 84.59446 
L 206.353437 81.068399 
L 206.835019 81.033999 
L 207.798184 84.319255 
L 208.279767 80.741593 
L 208.761349 85.867282 
L 209.242932 89.18694 
L 209.724514 94.295428 
L 210.206097 90.734966 
L 210.687679 94.295428 
L 211.169262 94.243827 
L 211.650844 85.557677 
L 212.132427 67.342561 
L 212.614009 76.389918 
L 213.095592 76.424319 
L 213.577174 76.733924 
L 214.058757 85.695279 
L 214.540339 104.22 
L 215.021921 104.065197 
L 215.503504 104.099598 
L 215.985086 102.207565 
L 217.911416 102.155964 
L 218.392999 103.789993 
L 219.837746 103.738392 
L 220.319329 103.428786 
L 220.800911 101.674356 
L 221.282494 98.199896 
L 222.245659 94.467431 
L 222.727241 87.570112 
L 223.208824 82.530424 
L 223.690406 78.935562 
L 224.653571 68.632584 
L 225.135154 68.649784 
L 225.616736 68.529382 
L 226.098319 70.301013 
L 227.061484 66.602949 
L 227.543066 71.90064 
L 228.024649 78.866761 
L 228.506231 84.198853 
L 228.987814 87.673313 
L 229.469396 96.600268 
L 229.950979 98.337498 
L 230.432561 87.690514 
L 230.914144 69.286195 
L 231.395726 56.26557 
L 232.358891 19.783738 
L 232.840474 12.250007 
L 234.285221 12.318809 
L 238.137881 12.250007 
L 241.027376 11.923202 
L 242.953706 11.957602 
L 247.287948 11.888801 
L 248.732696 11.888801 
L 250.177443 11.82 
L 250.659026 13.694832 
L 252.103773 13.798034 
L 252.585356 13.798034 
L 253.066938 11.888801 
L 253.548521 11.871601 
L 254.030103 13.746433 
L 255.956433 13.763634 
L 256.438016 11.888801 
L 258.845928 11.957602 
L 260.290676 11.888801 
L 261.735423 11.940402 
L 262.698588 15.621266 
L 264.143336 15.552465 
L 265.106501 11.906001 
L 266.069665 11.940402 
L 271.848655 11.923202 
L 272.330238 13.712033 
L 273.293403 13.815235 
L 274.256568 13.832435 
L 274.73815 11.992003 
L 275.219733 11.923202 
L 275.701315 13.780834 
L 277.627645 13.677632 
L 278.109228 11.8372 
L 282.925053 11.923202 
L 283.406635 11.974803 
L 283.888218 13.763634 
L 285.814548 13.660432 
L 286.29613 11.871601 
L 288.22246 11.906001 
L 290.14879 12.043604 
L 290.630372 13.866835 
L 291.593537 13.798034 
L 292.07512 15.569665 
L 292.556702 15.552465 
L 293.038285 13.712033 
L 294.00145 13.712033 
L 294.483032 11.854401 
L 296.409362 11.957602 
L 297.85411 11.992003 
L 299.298857 11.871601 
L 300.262022 11.940402 
L 300.743605 13.815235 
L 302.669935 13.746433 
L 303.151517 11.906001 
L 304.114682 11.992003 
L 304.596265 13.815235 
L 306.522595 13.694832 
L 307.004177 11.940402 
L 307.48576 13.763634 
L 307.967342 13.866835 
L 309.41209 13.815235 
L 309.893672 11.992003 
L 310.375255 13.866835 
L 312.301585 13.866835 
L 312.783167 13.729233 
L 316.635827 13.763634 
L 317.117409 15.535264 
L 317.598992 13.763634 
L 318.562157 13.694832 
L 318.562157 13.694832 
" clip-path="url(#pfc5e85e7aa)" style="fill: none; stroke: #2ca02c; stroke-linecap: square"/>
   </g>
   <g id="patch_8">
    <path d="M 195.180723 104.22 
L 195.180723 7.2 
" style="fill: none; stroke: #000000; stroke-width: 0.8; stroke-linejoin: miter; stroke-linecap: square"/>
   </g>
   <g id="patch_9">
    <path d="M 329.638554 104.22 
L 329.638554 7.2 
" style="fill: none; stroke: #000000; stroke-width: 0.8; stroke-linejoin: miter; stroke-linecap: square"/>
   </g>
   <g id="patch_10">
    <path d="M 195.180723 104.22 
L 329.638554 104.22 
" style="fill: none; stroke: #000000; stroke-width: 0.8; stroke-linejoin: miter; stroke-linecap: square"/>
   </g>
   <g id="patch_11">
    <path d="M 195.180723 7.2 
L 329.638554 7.2 
" style="fill: none; stroke: #000000; stroke-width: 0.8; stroke-linejoin: miter; stroke-linecap: square"/>
   </g>
  </g>
  <g id="axes_3">
   <g id="patch_12">
    <path d="M 336.361446 104.22 
L 470.819277 104.22 
L 470.819277 7.2 
L 336.361446 7.2 
z
" style="fill: #ffffff"/>
   </g>
   <g id="matplotlib.axis_5">
    <g id="xtick_9">
     <g id="line2d_25">
      <g>
       <use xlink:href="#mf22c82ab75" x="341.054602" y="104.22" style="stroke: #000000; stroke-width: 0.8"/>
      </g>
     </g>
     <g id="text_15">
      <!-- 0 -->
      <g transform="translate(338.509602 117.29875) scale(0.08 -0.08)">
       <use xlink:href="#DejaVuSans-30"/>
      </g>
     </g>
    </g>
    <g id="xtick_10">
     <g id="line2d_26">
      <g>
       <use xlink:href="#mf22c82ab75" x="405.936939" y="104.22" style="stroke: #000000; stroke-width: 0.8"/>
      </g>
     </g>
     <g id="text_16">
      <!-- 3K -->
      <g transform="translate(400.768814 117.29875) scale(0.08 -0.08)">
       <use xlink:href="#DejaVuSans-33"/>
       <use xlink:href="#DejaVuSans-4b" x="63.623047"/>
      </g>
     </g>
    </g>
    <g id="xtick_11">
     <g id="line2d_27">
      <g>
       <use xlink:href="#mf22c82ab75" x="470.819277" y="104.22" style="stroke: #000000; stroke-width: 0.8"/>
      </g>
     </g>
     <g id="text_17">
      <!-- 6K -->
      <g transform="translate(465.651152 117.29875) scale(0.08 -0.08)">
       <use xlink:href="#DejaVuSans-36"/>
       <use xlink:href="#DejaVuSans-4b" x="63.623047"/>
      </g>
     </g>
    </g>
   </g>
   <g id="matplotlib.axis_6">
    <g id="ytick_13">
     <g id="line2d_28">
      <g>
       <use xlink:href="#m4f6b8bf3e8" x="336.361446" y="104.22" style="stroke: #000000; stroke-width: 0.8"/>
      </g>
     </g>
    </g>
    <g id="ytick_14">
     <g id="line2d_29">
      <g>
       <use xlink:href="#m4f6b8bf3e8" x="336.361446" y="85.74" style="stroke: #000000; stroke-width: 0.8"/>
      </g>
     </g>
    </g>
    <g id="ytick_15">
     <g id="line2d_30">
      <g>
       <use xlink:href="#m4f6b8bf3e8" x="336.361446" y="67.26" style="stroke: #000000; stroke-width: 0.8"/>
      </g>
     </g>
    </g>
    <g id="ytick_16">
     <g id="line2d_31">
      <g>
       <use xlink:href="#m4f6b8bf3e8" x="336.361446" y="48.78" style="stroke: #000000; stroke-width: 0.8"/>
      </g>
     </g>
    </g>
    <g id="ytick_17">
     <g id="line2d_32">
      <g>
       <use xlink:href="#m4f6b8bf3e8" x="336.361446" y="30.3" style="stroke: #000000; stroke-width: 0.8"/>
      </g>
     </g>
    </g>
    <g id="ytick_18">
     <g id="line2d_33">
      <g>
       <use xlink:href="#m4f6b8bf3e8" x="336.361446" y="11.82" style="stroke: #000000; stroke-width: 0.8"/>
      </g>
     </g>
    </g>
   </g>
   <g id="line2d_34">
    <path d="M 341.703425 103.3913 
L 342.135974 103.3913 
L 342.352248 103.80565 
L 342.568523 103.3913 
L 342.784797 104.22 
L 343.001072 101.733901 
L 343.217346 100.905202 
L 343.649895 100.905202 
L 344.082444 102.976951 
L 344.947542 97.590404 
L 345.163816 98.833453 
L 345.380091 99.247803 
L 345.596365 100.490852 
L 346.028914 99.247803 
L 346.245189 98.833453 
L 346.461463 99.662152 
L 346.677737 97.590404 
L 346.894012 98.419103 
L 347.110286 100.905202 
L 347.542835 95.518655 
L 347.75911 96.761704 
L 347.975384 95.933004 
L 348.191659 91.375157 
L 348.624208 98.419103 
L 348.840482 99.247803 
L 349.056757 98.004753 
L 349.273031 100.490852 
L 349.489305 100.076502 
L 349.921854 97.176054 
L 350.138129 97.176054 
L 350.570678 93.446906 
L 351.003227 95.104305 
L 351.219501 97.176054 
L 351.435776 100.490852 
L 351.65205 98.833453 
L 351.868325 98.833453 
L 352.084599 96.347354 
L 352.300873 95.518655 
L 352.517148 93.032556 
L 352.733422 95.104305 
L 352.949697 93.032556 
L 353.165971 94.689955 
L 353.382246 94.689955 
L 353.814795 95.518655 
L 354.031069 98.419103 
L 354.463618 98.419103 
L 354.679892 100.905202 
L 354.896167 101.319552 
L 355.328716 97.590404 
L 355.54499 98.004753 
L 355.761265 95.933004 
L 355.977539 96.347354 
L 356.193814 97.590404 
L 356.410088 100.076502 
L 356.626363 98.004753 
L 356.842637 99.247803 
L 357.275186 98.419103 
L 357.49146 95.518655 
L 357.707735 98.833453 
L 357.924009 98.004753 
L 358.789107 89.717758 
L 359.437931 86.817309 
L 359.654205 90.960807 
L 359.87048 88.060359 
L 360.303028 89.717758 
L 360.519303 88.474709 
L 360.735577 83.502511 
L 360.951852 85.98861 
L 361.600675 83.502511 
L 362.033224 86.817309 
L 362.249499 85.57426 
L 362.898322 92.203857 
L 363.114596 86.817309 
L 363.330871 87.646009 
L 363.547145 83.916861 
L 363.76342 82.673812 
L 364.195969 78.115964 
L 364.412243 73.558117 
L 364.628518 73.558117 
L 364.844792 74.386816 
L 365.493615 85.57426 
L 365.70989 82.259462 
L 365.926164 83.502511 
L 366.142439 81.016413 
L 366.358713 82.673812 
L 366.574988 79.359013 
L 366.791262 81.845112 
L 367.007537 80.187713 
L 367.223811 80.187713 
L 367.440086 76.458565 
L 367.65636 74.801166 
L 367.872634 74.386816 
L 368.088909 73.143767 
L 368.305183 70.657668 
L 368.521458 69.828969 
L 368.737732 67.75722 
L 368.954007 68.17157 
L 369.170281 66.92852 
L 369.386556 66.51417 
L 369.60283 64.856771 
L 369.819105 70.243318 
L 370.035379 70.243318 
L 370.251654 71.486368 
L 370.684202 76.872915 
L 370.900477 69.828969 
L 371.765575 83.916861 
L 371.981849 95.104305 
L 372.198124 95.518655 
L 372.414398 97.176054 
L 372.630673 95.518655 
L 372.846947 98.419103 
L 373.063222 98.004753 
L 373.279496 100.490852 
L 373.49577 99.247803 
L 373.712045 100.076502 
L 373.928319 100.076502 
L 374.144594 100.490852 
L 374.360868 98.004753 
L 374.577143 98.004753 
L 374.793417 96.347354 
L 375.009692 95.933004 
L 375.225966 96.347354 
L 375.442241 96.347354 
L 375.658515 96.761704 
L 375.874789 99.662152 
L 376.091064 99.247803 
L 376.307338 96.761704 
L 376.523613 96.761704 
L 376.956162 93.446906 
L 377.172436 93.032556 
L 377.388711 89.717758 
L 377.604985 88.474709 
L 377.82126 88.889058 
L 378.253809 82.673812 
L 378.686357 88.060359 
L 379.118906 88.060359 
L 379.335181 89.717758 
L 379.551455 90.132108 
L 379.76773 84.745561 
L 379.984004 82.259462 
L 380.416553 71.900717 
L 380.632828 71.486368 
L 380.849102 72.315067 
L 381.065377 69.414619 
L 381.281651 69.414619 
L 381.497925 69.828969 
L 381.7142 64.442422 
L 381.930474 65.685471 
L 382.146749 63.199372 
L 382.363023 62.785022 
L 382.579298 62.785022 
L 382.795572 66.92852 
L 383.011847 62.370673 
L 383.228121 67.34287 
L 383.444396 69.414619 
L 383.66067 70.243318 
L 383.876944 69.414619 
L 384.093219 78.530314 
L 384.742042 90.132108 
L 384.958317 90.546457 
L 385.390866 79.773363 
L 385.823415 69.414619 
L 386.039689 70.657668 
L 386.255964 69.000269 
L 386.472238 65.271121 
L 386.688512 68.17157 
L 387.121061 60.298924 
L 387.55361 62.370673 
L 387.769885 61.541973 
L 387.986159 69.000269 
L 388.202434 70.657668 
L 389.283806 95.518655 
L 389.50008 97.590404 
L 389.716355 98.419103 
L 389.932629 102.148251 
L 390.365178 103.80565 
L 390.581453 103.3913 
L 391.014002 101.733901 
L 391.230276 100.076502 
L 391.446551 100.490852 
L 391.879099 98.004753 
L 392.095374 95.518655 
L 392.527923 96.347354 
L 392.744197 92.618206 
L 393.176746 76.044215 
L 393.393021 69.000269 
L 393.609295 58.227175 
L 393.82557 54.083677 
L 394.041844 59.470224 
L 394.258119 61.956323 
L 394.474393 68.17157 
L 394.690667 62.370673 
L 394.906942 63.613722 
L 395.123216 62.370673 
L 395.339491 66.099821 
L 395.555765 60.298924 
L 395.77204 69.828969 
L 395.988314 73.558117 
L 396.204589 70.243318 
L 396.420863 62.370673 
L 396.853412 58.227175 
L 397.069686 57.398475 
L 397.71851 81.430762 
L 397.934784 78.530314 
L 398.583608 55.326726 
L 398.799882 42.896233 
L 399.016157 41.653184 
L 399.232431 45.382332 
L 399.448706 45.382332 
L 399.66498 40.824484 
L 400.097529 44.967982 
L 400.530078 40.410135 
L 400.746352 41.653184 
L 400.962627 39.995785 
L 401.395176 32.951839 
L 401.61145 36.266637 
L 401.827725 35.437937 
L 402.043999 32.123139 
L 402.260274 33.366188 
L 402.476548 35.437937 
L 403.55792 81.430762 
L 403.774195 82.259462 
L 403.990469 83.916861 
L 404.206744 86.817309 
L 404.423018 87.646009 
L 404.639293 89.303408 
L 404.855567 89.303408 
L 405.071841 89.717758 
L 405.50439 95.933004 
L 405.720665 93.861256 
L 406.153214 82.673812 
L 406.802037 56.155426 
L 407.667135 75.215516 
L 408.099684 56.569776 
L 408.315958 54.083677 
L 408.532233 49.11148 
L 408.964782 52.011928 
L 409.181056 52.011928 
L 409.397331 46.211031 
L 409.613605 47.86843 
L 409.82988 47.86843 
L 410.694977 82.673812 
L 410.911252 87.231659 
L 411.992624 56.984126 
L 412.208899 56.984126 
L 412.425173 51.597578 
L 412.857722 53.254978 
L 413.073996 49.11148 
L 413.290271 48.28278 
L 413.72282 50.768879 
L 413.939094 55.326726 
L 414.155369 56.569776 
L 414.371643 61.541973 
L 414.587918 61.541973 
L 414.804192 62.370673 
L 415.020467 61.956323 
L 415.236741 59.470224 
L 415.66929 43.310583 
L 415.885564 39.581435 
L 416.101839 28.808341 
L 416.534388 32.123139 
L 416.750662 37.509686 
L 416.966937 35.023587 
L 417.183211 39.167085 
L 417.61576 41.653184 
L 418.048309 32.537489 
L 418.264584 30.46574 
L 418.697132 23.421794 
L 419.129681 39.581435 
L 419.345956 39.167085 
L 419.56223 36.266637 
L 419.778505 38.338386 
L 420.211054 31.294439 
L 420.859877 65.685471 
L 421.076151 70.243318 
L 421.292426 79.359013 
L 421.5087 70.657668 
L 421.724975 69.828969 
L 421.941249 65.685471 
L 422.157524 64.856771 
L 422.373798 64.856771 
L 422.590073 68.585919 
L 422.806347 65.271121 
L 423.671445 84.331211 
L 423.887719 95.933004 
L 424.103994 97.590404 
L 424.320268 98.004753 
L 424.536543 98.833453 
L 424.752817 100.905202 
L 424.969092 98.419103 
L 425.185366 98.004753 
L 425.401641 99.247803 
L 425.617915 99.662152 
L 425.83419 99.662152 
L 426.050464 100.490852 
L 426.266738 100.490852 
L 426.483013 101.319552 
L 426.699287 100.905202 
L 426.915562 100.905202 
L 427.348111 102.976951 
L 427.564385 101.733901 
L 427.996934 101.733901 
L 428.213209 99.247803 
L 428.429483 98.833453 
L 428.645758 99.247803 
L 428.862032 99.247803 
L 429.078306 98.419103 
L 429.294581 100.490852 
L 429.510855 100.905202 
L 429.72713 101.733901 
L 429.943404 101.319552 
L 430.159679 102.148251 
L 430.375953 102.148251 
L 430.592228 101.733901 
L 430.808502 98.833453 
L 431.024777 98.833453 
L 431.241051 99.247803 
L 431.457326 98.833453 
L 432.106149 61.541973 
L 432.538698 26.736592 
L 432.971247 15.963498 
L 433.187521 15.134798 
L 434.268893 35.023587 
L 434.485168 32.537489 
L 434.917717 35.023587 
L 435.133991 33.366188 
L 435.350266 29.63704 
L 435.782815 32.951839 
L 435.999089 32.951839 
L 436.215364 35.023587 
L 437.080461 16.377848 
L 437.296736 11.82 
L 437.51301 14.720448 
L 437.729285 19.278296 
L 438.378108 63.613722 
L 438.810657 90.546457 
L 439.243206 90.546457 
L 439.892029 84.745561 
L 440.108304 85.15991 
L 440.973402 42.481883 
L 441.189676 37.509686 
L 441.405951 42.067534 
L 441.622225 40.824484 
L 442.054774 49.52583 
L 442.271048 54.498027 
L 442.487323 55.326726 
L 442.703597 64.856771 
L 443.136146 73.143767 
L 443.352421 69.828969 
L 443.568695 68.585919 
L 443.78497 60.298924 
L 444.001244 59.884574 
L 444.217519 57.812825 
L 444.433793 57.398475 
L 444.650068 53.254978 
L 444.866342 65.271121 
L 445.082616 62.785022 
L 445.298891 72.729417 
L 445.515165 69.828969 
L 445.73144 75.629865 
L 445.947714 66.099821 
L 446.163989 69.828969 
L 446.380263 52.426278 
L 446.596538 54.912377 
L 446.812812 51.597578 
L 447.029087 51.183229 
L 447.245361 47.039731 
L 447.461636 53.669327 
L 447.67791 46.625381 
L 447.894184 46.211031 
L 448.110459 44.139283 
L 448.326733 44.967982 
L 448.543008 47.454081 
L 448.543008 47.454081 
" clip-path="url(#pc3563f04d6)" style="fill: none; stroke: #2ca02c; stroke-linecap: square"/>
   </g>
   <g id="line2d_35">
    <path d="M 341.703425 103.3913 
L 342.135974 103.3913 
L 342.352248 103.80565 
L 342.568523 103.3913 
L 342.784797 104.22 
L 343.001072 101.733901 
L 343.217346 100.905202 
L 343.649895 100.905202 
L 344.082444 102.976951 
L 344.947542 97.590404 
L 345.163816 98.833453 
L 345.380091 99.247803 
L 345.596365 100.490852 
L 346.028914 99.247803 
L 346.245189 98.833453 
L 346.461463 99.662152 
L 346.677737 97.590404 
L 346.894012 98.419103 
L 347.110286 100.905202 
L 347.542835 95.518655 
L 347.75911 96.761704 
L 347.975384 95.933004 
L 348.191659 91.375157 
L 348.624208 98.419103 
L 348.840482 99.247803 
L 349.056757 98.004753 
L 349.273031 100.490852 
L 349.489305 100.076502 
L 349.921854 97.176054 
L 350.138129 97.176054 
L 350.570678 93.446906 
L 351.003227 95.104305 
L 351.219501 97.176054 
L 351.435776 100.490852 
L 351.65205 98.833453 
L 351.868325 98.833453 
L 352.084599 96.347354 
L 352.300873 95.518655 
L 352.517148 93.032556 
L 352.733422 95.104305 
L 352.949697 93.032556 
L 353.165971 94.689955 
L 353.382246 94.689955 
L 353.814795 95.518655 
L 354.031069 98.419103 
L 354.463618 98.419103 
L 354.679892 100.905202 
L 354.896167 101.319552 
L 355.328716 97.590404 
L 355.54499 98.004753 
L 355.761265 95.933004 
L 355.977539 96.347354 
L 356.193814 97.590404 
L 356.410088 100.076502 
L 356.626363 98.004753 
L 356.842637 99.247803 
L 357.275186 98.419103 
L 357.49146 95.518655 
L 357.707735 98.833453 
L 357.924009 98.004753 
L 358.789107 89.717758 
L 359.437931 86.817309 
L 359.654205 90.960807 
L 359.87048 88.060359 
L 360.303028 89.717758 
L 360.519303 88.474709 
L 360.735577 83.502511 
L 360.951852 85.98861 
L 361.600675 83.502511 
L 362.033224 86.817309 
L 362.249499 85.57426 
L 362.898322 92.203857 
L 363.114596 86.817309 
L 363.330871 87.646009 
L 363.547145 83.916861 
L 363.76342 82.673812 
L 364.195969 78.115964 
L 364.412243 73.558117 
L 364.628518 73.558117 
L 364.844792 74.386816 
L 365.493615 85.57426 
L 365.70989 82.259462 
L 365.926164 83.502511 
L 366.142439 81.016413 
L 366.358713 82.673812 
L 366.574988 79.359013 
L 366.791262 81.845112 
L 367.007537 80.187713 
L 367.223811 80.187713 
L 367.440086 76.458565 
L 367.65636 74.801166 
L 367.872634 74.386816 
L 368.088909 73.143767 
L 368.305183 70.657668 
L 368.521458 69.828969 
L 368.737732 67.75722 
L 368.954007 68.17157 
L 369.170281 66.92852 
L 369.386556 66.51417 
L 369.60283 64.856771 
L 369.819105 70.243318 
L 370.035379 70.243318 
L 370.251654 71.486368 
L 370.684202 76.872915 
L 370.900477 69.828969 
L 371.765575 83.916861 
L 371.981849 95.104305 
L 372.198124 95.518655 
L 372.414398 97.176054 
L 372.630673 95.518655 
L 372.846947 98.419103 
L 373.063222 98.004753 
L 373.279496 100.490852 
L 373.49577 99.247803 
L 373.712045 100.076502 
L 373.928319 100.076502 
L 374.144594 100.490852 
L 374.360868 98.004753 
L 374.577143 98.004753 
L 374.793417 96.347354 
L 375.009692 95.933004 
L 375.225966 96.347354 
L 375.442241 96.347354 
L 375.658515 96.761704 
L 375.874789 99.662152 
L 376.091064 99.247803 
L 376.307338 96.761704 
L 376.523613 96.761704 
L 376.956162 93.446906 
L 377.172436 93.032556 
L 377.388711 89.717758 
L 377.604985 88.474709 
L 377.82126 88.889058 
L 378.253809 82.673812 
L 378.686357 88.060359 
L 379.118906 88.060359 
L 379.335181 89.717758 
L 379.551455 90.132108 
L 379.76773 84.745561 
L 379.984004 82.259462 
L 380.416553 71.900717 
L 380.632828 71.486368 
L 380.849102 72.315067 
L 381.065377 69.414619 
L 381.281651 69.414619 
L 381.497925 69.828969 
L 381.7142 64.442422 
L 381.930474 65.685471 
L 382.146749 63.199372 
L 382.363023 62.785022 
L 382.579298 62.785022 
L 382.795572 66.92852 
L 383.011847 62.370673 
L 383.228121 67.34287 
L 383.444396 69.414619 
L 383.66067 70.243318 
L 383.876944 69.414619 
L 384.093219 78.530314 
L 384.742042 90.132108 
L 384.958317 90.546457 
L 385.390866 79.773363 
L 385.823415 69.414619 
L 386.039689 70.657668 
L 386.255964 69.000269 
L 386.472238 65.271121 
L 386.688512 68.17157 
L 387.121061 60.298924 
L 387.55361 62.370673 
L 387.769885 61.541973 
L 387.986159 69.000269 
L 388.202434 70.657668 
L 389.283806 95.518655 
L 389.50008 97.590404 
L 389.716355 98.419103 
L 389.932629 102.148251 
L 390.365178 103.80565 
L 390.581453 103.3913 
L 391.014002 101.733901 
L 391.230276 100.076502 
L 391.446551 100.490852 
L 391.879099 98.004753 
L 392.095374 95.518655 
L 392.527923 96.347354 
L 392.744197 92.618206 
L 393.176746 76.044215 
L 393.393021 69.000269 
L 393.609295 58.227175 
L 393.82557 54.083677 
L 394.041844 59.470224 
L 394.258119 61.956323 
L 394.474393 68.17157 
L 394.690667 62.370673 
L 394.906942 63.613722 
L 395.123216 62.370673 
L 395.339491 66.099821 
L 395.555765 60.298924 
L 395.77204 69.828969 
L 395.988314 73.558117 
L 396.204589 70.243318 
L 396.420863 62.370673 
L 396.853412 58.227175 
L 397.069686 57.398475 
L 397.71851 81.430762 
L 397.934784 78.530314 
L 398.583608 55.326726 
L 398.799882 42.896233 
L 399.016157 41.653184 
L 399.232431 45.382332 
L 399.448706 45.382332 
L 399.66498 40.824484 
L 400.097529 44.967982 
L 400.530078 40.410135 
L 400.746352 41.653184 
L 400.962627 39.995785 
L 401.395176 32.951839 
L 401.61145 36.266637 
L 401.827725 35.437937 
L 402.043999 32.123139 
L 402.260274 33.366188 
L 402.476548 35.437937 
L 403.55792 81.430762 
L 403.774195 82.259462 
L 403.990469 83.916861 
L 404.206744 86.817309 
L 404.423018 87.646009 
L 404.639293 89.303408 
L 404.855567 89.303408 
L 405.071841 89.717758 
L 405.50439 95.933004 
L 405.720665 93.861256 
L 406.153214 82.673812 
L 406.802037 56.155426 
L 407.667135 75.215516 
L 408.099684 56.569776 
L 408.315958 54.083677 
L 408.532233 49.11148 
L 408.964782 52.011928 
L 409.181056 52.011928 
L 409.397331 46.211031 
L 409.613605 47.86843 
L 409.82988 47.86843 
L 410.694977 82.673812 
L 410.911252 87.231659 
L 411.992624 56.984126 
L 412.208899 56.984126 
L 412.425173 51.597578 
L 412.857722 53.254978 
L 413.073996 49.11148 
L 413.290271 48.28278 
L 413.72282 50.768879 
L 413.939094 55.326726 
L 414.155369 56.569776 
L 414.371643 61.541973 
L 414.587918 61.541973 
L 414.804192 62.370673 
L 415.020467 61.956323 
L 415.236741 59.470224 
L 415.66929 43.310583 
L 415.885564 39.581435 
L 416.101839 28.808341 
L 416.534388 32.123139 
L 416.750662 37.509686 
L 416.966937 35.023587 
L 417.183211 39.167085 
L 417.61576 41.653184 
L 418.048309 32.537489 
L 418.264584 30.46574 
L 418.697132 23.421794 
L 419.129681 39.581435 
L 419.345956 39.167085 
L 419.56223 36.266637 
L 419.778505 38.338386 
L 420.211054 31.294439 
L 420.859877 65.685471 
L 421.076151 70.243318 
L 421.292426 79.359013 
L 421.5087 70.657668 
L 421.724975 69.828969 
L 421.941249 65.685471 
L 422.157524 64.856771 
L 422.373798 64.856771 
L 422.590073 68.585919 
L 422.806347 65.271121 
L 423.671445 84.331211 
L 423.887719 95.933004 
L 424.103994 97.590404 
L 424.320268 98.004753 
L 424.536543 98.833453 
L 424.752817 100.905202 
L 424.969092 98.419103 
L 425.185366 98.004753 
L 425.401641 99.247803 
L 425.617915 99.662152 
L 425.83419 99.662152 
L 426.050464 100.490852 
L 426.266738 100.490852 
L 426.483013 101.319552 
L 426.699287 100.905202 
L 426.915562 100.905202 
L 427.348111 102.976951 
L 427.564385 101.733901 
L 427.996934 101.733901 
L 428.213209 99.247803 
L 428.429483 98.833453 
L 428.645758 99.247803 
L 428.862032 99.247803 
L 429.078306 98.419103 
L 429.294581 100.490852 
L 429.510855 100.905202 
L 429.72713 101.733901 
L 429.943404 101.319552 
L 430.159679 102.148251 
L 430.375953 102.148251 
L 430.592228 101.733901 
L 430.808502 98.833453 
L 431.024777 98.833453 
L 431.241051 99.247803 
L 431.457326 98.833453 
L 432.106149 61.541973 
L 432.538698 26.736592 
L 432.971247 15.963498 
L 433.187521 15.134798 
L 434.268893 35.023587 
L 434.485168 32.537489 
L 434.917717 35.023587 
L 435.133991 33.366188 
L 435.350266 29.63704 
L 435.782815 32.951839 
L 435.999089 32.951839 
L 436.215364 35.023587 
L 437.080461 16.377848 
L 437.296736 11.82 
L 437.51301 14.720448 
L 437.729285 19.278296 
L 438.378108 63.613722 
L 438.810657 90.546457 
L 439.243206 90.546457 
L 439.892029 84.745561 
L 440.108304 85.15991 
L 440.973402 42.481883 
L 441.189676 37.509686 
L 441.405951 42.067534 
L 441.622225 40.824484 
L 442.054774 49.52583 
L 442.271048 54.498027 
L 442.487323 55.326726 
L 442.703597 64.856771 
L 443.136146 73.143767 
L 443.352421 69.828969 
L 443.568695 68.585919 
L 443.78497 60.298924 
L 444.001244 59.884574 
L 444.217519 57.812825 
L 444.433793 57.398475 
L 444.650068 53.254978 
L 444.866342 65.271121 
L 445.082616 62.785022 
L 445.298891 72.729417 
L 445.515165 69.828969 
L 445.73144 75.629865 
L 445.947714 66.099821 
L 446.163989 69.828969 
L 446.380263 52.426278 
L 446.596538 54.912377 
L 446.812812 51.597578 
L 447.029087 51.183229 
L 447.245361 47.039731 
L 447.461636 53.669327 
L 447.67791 46.625381 
L 447.894184 46.211031 
L 448.110459 44.139283 
L 448.326733 44.967982 
L 448.543008 47.454081 
L 448.543008 47.454081 
" clip-path="url(#pc3563f04d6)" style="fill: none; stroke: #2ca02c; stroke-linecap: square"/>
   </g>
   <g id="patch_13">
    <path d="M 336.361446 104.22 
L 336.361446 7.2 
" style="fill: none; stroke: #000000; stroke-width: 0.8; stroke-linejoin: miter; stroke-linecap: square"/>
   </g>
   <g id="patch_14">
    <path d="M 470.819277 104.22 
L 470.819277 7.2 
" style="fill: none; stroke: #000000; stroke-width: 0.8; stroke-linejoin: miter; stroke-linecap: square"/>
   </g>
   <g id="patch_15">
    <path d="M 336.361446 104.22 
L 470.819277 104.22 
" style="fill: none; stroke: #000000; stroke-width: 0.8; stroke-linejoin: miter; stroke-linecap: square"/>
   </g>
   <g id="patch_16">
    <path d="M 336.361446 7.2 
L 470.819277 7.2 
" style="fill: none; stroke: #000000; stroke-width: 0.8; stroke-linejoin: miter; stroke-linecap: square"/>
   </g>
  </g>
  <g id="axes_4">
   <g id="patch_17">
    <path d="M 477.542169 104.22 
L 612 104.22 
L 612 7.2 
L 477.542169 7.2 
z
" style="fill: #ffffff"/>
   </g>
   <g id="matplotlib.axis_7">
    <g id="xtick_12">
     <g id="line2d_36">
      <g>
       <use xlink:href="#mf22c82ab75" x="482.235324" y="104.22" style="stroke: #000000; stroke-width: 0.8"/>
      </g>
     </g>
     <g id="text_18">
      <!-- 0 -->
      <g transform="translate(479.690324 117.29875) scale(0.08 -0.08)">
       <use xlink:href="#DejaVuSans-30"/>
      </g>
     </g>
    </g>
    <g id="xtick_13">
     <g id="line2d_37">
      <g>
       <use xlink:href="#mf22c82ab75" x="547.117662" y="104.22" style="stroke: #000000; stroke-width: 0.8"/>
      </g>
     </g>
     <g id="text_19">
      <!-- 3K -->
      <g transform="translate(541.949537 117.29875) scale(0.08 -0.08)">
       <use xlink:href="#DejaVuSans-33"/>
       <use xlink:href="#DejaVuSans-4b" x="63.623047"/>
      </g>
     </g>
    </g>
    <g id="xtick_14">
     <g id="line2d_38">
      <g>
       <use xlink:href="#mf22c82ab75" x="612" y="104.22" style="stroke: #000000; stroke-width: 0.8"/>
      </g>
     </g>
     <g id="text_20">
      <!-- 6K -->
      <g transform="translate(606.831875 117.29875) scale(0.08 -0.08)">
       <use xlink:href="#DejaVuSans-36"/>
       <use xlink:href="#DejaVuSans-4b" x="63.623047"/>
      </g>
     </g>
    </g>
   </g>
   <g id="matplotlib.axis_8">
    <g id="ytick_19">
     <g id="line2d_39">
      <g>
       <use xlink:href="#m4f6b8bf3e8" x="477.542169" y="104.22" style="stroke: #000000; stroke-width: 0.8"/>
      </g>
     </g>
    </g>
    <g id="ytick_20">
     <g id="line2d_40">
      <g>
       <use xlink:href="#m4f6b8bf3e8" x="477.542169" y="85.74" style="stroke: #000000; stroke-width: 0.8"/>
      </g>
     </g>
    </g>
    <g id="ytick_21">
     <g id="line2d_41">
      <g>
       <use xlink:href="#m4f6b8bf3e8" x="477.542169" y="67.26" style="stroke: #000000; stroke-width: 0.8"/>
      </g>
     </g>
    </g>
    <g id="ytick_22">
     <g id="line2d_42">
      <g>
       <use xlink:href="#m4f6b8bf3e8" x="477.542169" y="48.78" style="stroke: #000000; stroke-width: 0.8"/>
      </g>
     </g>
    </g>
    <g id="ytick_23">
     <g id="line2d_43">
      <g>
       <use xlink:href="#m4f6b8bf3e8" x="477.542169" y="30.3" style="stroke: #000000; stroke-width: 0.8"/>
      </g>
     </g>
    </g>
    <g id="ytick_24">
     <g id="line2d_44">
      <g>
       <use xlink:href="#m4f6b8bf3e8" x="477.542169" y="11.82" style="stroke: #000000; stroke-width: 0.8"/>
      </g>
     </g>
    </g>
   </g>
   <g id="line2d_45">
    <path d="M 482.884148 77.125966 
L 483.100422 93.195531 
L 483.316697 99.455187 
L 483.749246 100.763175 
L 483.96552 97.493205 
L 484.181795 76.144975 
L 484.398069 81.750637 
L 484.830618 74.836987 
L 485.046892 74.276421 
L 485.263167 84.880465 
L 485.479441 76.518686 
L 485.695716 81.517068 
L 485.91199 89.691992 
L 486.128265 86.655592 
L 486.344539 81.984206 
L 486.560814 81.143357 
L 486.993363 73.90271 
L 487.209637 77.733246 
L 487.425911 69.838605 
L 487.642186 68.670758 
L 487.85846 80.302508 
L 488.074735 82.264489 
L 488.291009 78.807664 
L 488.507284 95.297654 
L 488.723558 101.697452 
L 488.939833 99.828898 
L 489.156107 100.856603 
L 489.372382 104.22 
L 489.588656 88.103721 
L 489.804931 86.188453 
L 490.021205 77.733246 
L 490.237479 77.079252 
L 490.453754 73.202002 
L 490.670028 77.733246 
L 490.886303 70.539312 
L 491.102577 75.631122 
L 491.318852 72.594722 
L 491.535126 73.575713 
L 491.751401 68.437189 
L 491.967675 72.221011 
L 492.18395 67.222629 
L 492.400224 65.54093 
L 492.616498 61.710394 
L 492.832773 55.35731 
L 493.049047 54.282892 
L 493.265322 44.472983 
L 493.697871 49.798362 
L 494.13042 61.430111 
L 494.346694 77.359535 
L 494.562969 69.745177 
L 494.779243 71.333448 
L 495.211792 62.831527 
L 495.428066 50.872781 
L 495.644341 55.917877 
L 495.860615 55.217169 
L 496.07689 58.533852 
L 496.293164 55.077027 
L 496.509439 64.373084 
L 496.725713 63.859232 
L 496.941988 61.009687 
L 497.374537 62.270961 
L 497.807086 59.23456 
L 498.02336 58.02 
L 498.239634 52.788049 
L 498.455909 54.843458 
L 498.672183 50.358928 
L 498.888458 51.339919 
L 499.104732 51.480061 
L 499.321007 49.424651 
L 499.753556 64.700081 
L 499.96983 61.803822 
L 500.186105 60.635976 
L 500.402379 69.558322 
L 500.618653 67.829909 
L 500.834928 61.0564 
L 501.051202 61.103114 
L 501.267477 64.653367 
L 501.483751 70.819596 
L 501.700026 65.307361 
L 501.9163 67.59634 
L 502.132575 67.829909 
L 502.348849 63.438807 
L 502.565124 53.862467 
L 502.781398 51.900485 
L 502.997673 45.547401 
L 503.213947 45.921112 
L 503.430221 47.83638 
L 503.646496 45.267118 
L 503.86277 45.967826 
L 504.079045 45.780971 
L 504.295319 43.258423 
L 504.511594 44.753266 
L 504.727868 45.080263 
L 504.944143 48.583802 
L 505.160417 49.704934 
L 505.376692 57.739717 
L 505.592966 60.168837 
L 505.809241 73.622427 
L 506.025515 74.743559 
L 506.241789 86.51545 
L 506.674338 79.788655 
L 506.890613 72.501294 
L 507.106887 72.594722 
L 507.323162 62.457816 
L 507.539436 66.568635 
L 507.755711 85.721314 
L 508.18826 88.617573 
L 508.404534 86.842447 
L 508.620808 79.041234 
L 508.837083 58.066714 
L 509.269632 43.35185 
L 509.485906 40.689161 
L 509.702181 40.829302 
L 509.918455 47.369242 
L 510.13473 46.808675 
L 510.351004 41.343155 
L 510.567279 46.995531 
L 511.216102 38.446896 
L 511.432376 41.623438 
L 511.648651 37.465905 
L 511.864925 39.568028 
L 512.0812 37.27905 
L 512.297474 37.04548 
L 512.513749 43.491992 
L 512.730023 44.286127 
L 513.162572 57.039009 
L 513.378847 58.533852 
L 514.02767 49.611507 
L 514.243944 42.651143 
L 514.460219 42.324146 
L 514.676493 44.1927 
L 514.892768 44.1927 
L 515.109042 39.334459 
L 515.325317 40.642447 
L 515.541591 37.232336 
L 515.757866 30.785824 
L 515.97414 31.393104 
L 516.190415 31.019393 
L 516.406689 31.533246 
L 517.055512 52.834762 
L 517.704336 65.821213 
L 518.136885 61.336684 
L 518.353159 63.11181 
L 518.569434 62.317674 
L 518.785708 55.96459 
L 519.218257 52.694621 
L 519.434531 49.237796 
L 519.650806 49.611507 
L 520.083355 53.955895 
L 520.732178 64.980364 
L 521.164727 58.533852 
L 521.81355 41.109585 
L 522.246099 33.962366 
L 522.462374 36.578342 
L 522.678648 36.998766 
L 522.894923 35.130212 
L 523.327472 37.933043 
L 523.976295 27.936279 
L 524.19257 26.534863 
L 524.841393 36.251345 
L 525.057667 34.896643 
L 525.273942 32.79452 
L 525.490216 25.88087 
L 525.706491 23.451749 
L 526.13904 16.724954 
L 526.571589 21.629909 
L 526.787863 22.190475 
L 527.004138 23.82546 
L 527.220412 30.598969 
L 527.436686 27.796138 
L 527.652961 28.543559 
L 527.869235 31.57996 
L 528.08551 31.112821 
L 528.301784 31.299676 
L 528.518059 32.327381 
L 528.950608 32.56095 
L 529.166882 30.365399 
L 529.383157 23.732032 
L 529.599431 24.713023 
L 529.815705 26.815147 
L 530.03198 23.638605 
L 530.248254 26.161153 
L 530.464529 31.159535 
L 530.680803 32.79452 
L 530.897078 29.571264 
L 531.113352 33.541941 
L 531.329627 32.280667 
L 531.97845 21.349626 
L 532.410999 22.143761 
L 532.627273 24.993306 
L 532.843548 23.405035 
L 533.059822 26.675005 
L 533.276097 27.188857 
L 533.492371 27.002002 
L 533.708646 24.759737 
L 533.92492 26.394722 
L 534.141195 23.451749 
L 534.357469 18.266512 
L 534.573744 17.238807 
L 535.222567 23.451749 
L 535.438841 22.424044 
L 535.655116 23.732032 
L 536.087665 22.751041 
L 536.303939 22.424044 
L 536.520214 26.768433 
L 536.952763 28.216562 
L 537.385312 25.927583 
L 537.601586 22.237189 
L 538.034135 24.572882 
L 538.250409 21.816764 
L 538.466684 20.78906 
L 538.682958 20.929201 
L 538.899233 22.6109 
L 539.115507 19.808069 
L 539.548056 25.507159 
L 539.764331 25.553873 
L 539.980605 20.088352 
L 540.19688 19.154075 
L 540.413154 21.489767 
L 540.629428 27.235571 
L 540.845703 26.067725 
L 541.278252 34.242649 
L 541.494526 32.280667 
L 541.710801 22.797755 
L 541.927075 23.124752 
L 542.359624 16.958524 
L 543.008447 35.083498 
L 543.224722 44.426269 
L 543.440996 47.509383 
L 543.657271 53.068332 
L 543.873545 55.684307 
L 544.08982 55.59088 
L 544.306094 51.339919 
L 544.522369 56.385015 
L 544.954918 48.957513 
L 545.171192 48.817371 
L 545.387467 51.993913 
L 545.820015 43.538706 
L 546.03629 40.969444 
L 546.252564 41.203013 
L 546.468839 35.690779 
L 546.685113 35.22364 
L 546.901388 33.028089 
L 547.117662 34.803215 
L 547.333937 29.711405 
L 547.550211 29.851547 
L 547.98276 22.984611 
L 548.199035 22.751041 
L 548.415309 26.581577 
L 548.631583 25.600586 
L 548.847858 27.235571 
L 549.064132 27.328999 
L 549.496681 22.237189 
L 549.92923 17.332235 
L 550.145505 18.032942 
L 550.361779 18.219798 
L 550.578054 17.238807 
L 550.794328 21.910192 
L 551.226877 25.974297 
L 551.443151 25.086734 
L 551.659426 25.04002 
L 551.8757 22.751041 
L 552.091975 25.086734 
L 552.308249 21.536481 
L 552.524524 21.116057 
L 552.957073 16.070961 
L 553.173347 16.211102 
L 553.605896 19.574499 
L 553.82217 19.854783 
L 554.254719 19.013933 
L 554.470994 19.434358 
L 554.687268 23.358322 
L 554.903543 24.619596 
L 555.119817 27.375713 
L 555.552366 25.507159 
L 555.768641 22.891183 
L 556.20119 24.199171 
L 556.633738 21.209484 
L 557.282562 13.314843 
L 557.715111 12.894419 
L 558.14766 17.098665 
L 558.580209 20.55549 
L 558.796483 23.82546 
L 559.012757 23.918888 
L 559.229032 22.143761 
L 559.445306 22.517472 
L 559.661581 20.929201 
L 559.877855 20.695632 
L 560.09413 21.489767 
L 560.310404 21.116057 
L 560.526679 23.21818 
L 560.742953 22.564186 
L 561.175502 17.051951 
L 561.391777 19.574499 
L 561.608051 17.098665 
L 561.824325 18.266512 
L 562.0406 16.771668 
L 562.256874 17.098665 
L 562.473149 15.650536 
L 562.689423 16.91181 
L 562.905698 21.16277 
L 563.121972 22.190475 
L 563.338247 21.910192 
L 563.554521 22.424044 
L 563.770796 20.55549 
L 563.98707 16.91181 
L 564.203345 19.527786 
L 564.419619 19.34093 
L 564.635893 18.686936 
L 564.852168 21.676623 
L 565.068442 20.275207 
L 565.284717 16.257816 
L 565.500991 16.818382 
L 565.717266 16.958524 
L 565.93354 14.669545 
L 566.149815 15.557108 
L 566.366089 19.294216 
L 566.582364 18.12637 
L 566.798638 20.18178 
L 567.231187 21.583195 
L 567.447461 17.659232 
L 567.663736 18.359939 
L 567.88001 15.276825 
L 568.096285 17.051951 
L 568.312559 17.659232 
L 568.745108 22.517472 
L 568.961383 22.237189 
L 569.177657 22.424044 
L 569.393932 21.209484 
L 569.610206 22.237189 
L 569.82648 20.321921 
L 570.042755 24.059029 
L 570.259029 19.94821 
L 570.475304 18.920506 
L 570.691578 19.294216 
L 570.907853 20.18178 
L 571.124127 19.294216 
L 571.340402 20.368635 
L 571.556676 22.143761 
L 572.421774 12.894419 
L 572.638048 11.82 
L 573.070597 14.949828 
L 573.286872 14.903114 
L 573.503146 17.799373 
L 573.719421 17.098665 
L 573.935695 17.986229 
L 574.15197 19.621213 
L 574.368244 20.368635 
L 574.584519 18.12637 
L 574.800793 21.209484 
L 575.233342 18.266512 
L 575.449616 18.73365 
L 575.665891 19.901496 
L 575.882165 16.771668 
L 576.09844 17.238807 
L 576.314714 13.735268 
L 576.530989 13.314843 
L 576.747263 15.416967 
L 576.963538 21.863478 
L 577.179812 21.536481 
L 577.396087 24.666309 
L 577.612361 23.918888 
L 577.828635 21.069343 
L 578.04491 14.949828 
L 578.261184 14.342548 
L 578.477459 12.660849 
L 578.693733 12.847705 
L 578.910008 17.612518 
L 579.126282 17.986229 
L 579.342557 19.527786 
L 579.558831 19.667927 
L 579.775106 20.18178 
L 579.99138 17.192093 
L 580.207654 17.846087 
L 580.423929 17.799373 
L 580.640203 16.117674 
L 580.856478 17.005238 
L 581.072752 15.510394 
L 581.289027 15.46368 
L 581.505301 13.87541 
L 581.93785 12.660849 
L 582.154125 13.408271 
L 582.370399 12.287139 
L 582.802948 17.145379 
L 583.019222 18.079656 
L 583.235497 16.631527 
L 583.451771 16.818382 
L 583.668046 15.416967 
L 583.88432 17.939515 
L 584.100595 15.884105 
L 584.316869 15.930819 
L 584.749418 19.107361 
L 584.965693 16.30453 
L 585.398242 18.827078 
L 585.614516 17.799373 
L 585.83079 14.996542 
L 586.047065 17.705945 
L 586.263339 16.117674 
L 586.479614 16.351244 
L 586.695888 14.576117 
L 586.912163 17.51909 
L 587.128437 15.930819 
L 587.344712 16.444671 
L 587.560986 14.529403 
L 587.777261 18.032942 
L 587.993535 17.425662 
L 588.209809 15.930819 
L 588.642358 18.266512 
L 589.291182 12.380566 
L 589.507456 13.408271 
L 589.723731 15.043256 
L 589.723731 15.043256 
" clip-path="url(#p20526747aa)" style="fill: none; stroke: #2ca02c; stroke-linecap: square"/>
   </g>
   <g id="line2d_46">
    <path d="M 482.884148 77.125966 
L 483.100422 93.195531 
L 483.316697 99.455187 
L 483.749246 100.763175 
L 483.96552 97.493205 
L 484.181795 76.144975 
L 484.398069 81.750637 
L 484.830618 74.836987 
L 485.046892 74.276421 
L 485.263167 84.880465 
L 485.479441 76.518686 
L 485.695716 81.517068 
L 485.91199 89.691992 
L 486.128265 86.655592 
L 486.344539 81.984206 
L 486.560814 81.143357 
L 486.993363 73.90271 
L 487.209637 77.733246 
L 487.425911 69.838605 
L 487.642186 68.670758 
L 487.85846 80.302508 
L 488.074735 82.264489 
L 488.291009 78.807664 
L 488.507284 95.297654 
L 488.723558 101.697452 
L 488.939833 99.828898 
L 489.156107 100.856603 
L 489.372382 104.22 
L 489.588656 88.103721 
L 489.804931 86.188453 
L 490.021205 77.733246 
L 490.237479 77.079252 
L 490.453754 73.202002 
L 490.670028 77.733246 
L 490.886303 70.539312 
L 491.102577 75.631122 
L 491.318852 72.594722 
L 491.535126 73.575713 
L 491.751401 68.437189 
L 491.967675 72.221011 
L 492.18395 67.222629 
L 492.400224 65.54093 
L 492.616498 61.710394 
L 492.832773 55.35731 
L 493.049047 54.282892 
L 493.265322 44.472983 
L 493.697871 49.798362 
L 494.13042 61.430111 
L 494.346694 77.359535 
L 494.562969 69.745177 
L 494.779243 71.333448 
L 495.211792 62.831527 
L 495.428066 50.872781 
L 495.644341 55.917877 
L 495.860615 55.217169 
L 496.07689 58.533852 
L 496.293164 55.077027 
L 496.509439 64.373084 
L 496.725713 63.859232 
L 496.941988 61.009687 
L 497.374537 62.270961 
L 497.807086 59.23456 
L 498.02336 58.02 
L 498.239634 52.788049 
L 498.455909 54.843458 
L 498.672183 50.358928 
L 498.888458 51.339919 
L 499.104732 51.480061 
L 499.321007 49.424651 
L 499.753556 64.700081 
L 499.96983 61.803822 
L 500.186105 60.635976 
L 500.402379 69.558322 
L 500.618653 67.829909 
L 500.834928 61.0564 
L 501.051202 61.103114 
L 501.267477 64.653367 
L 501.483751 70.819596 
L 501.700026 65.307361 
L 501.9163 67.59634 
L 502.132575 67.829909 
L 502.348849 63.438807 
L 502.565124 53.862467 
L 502.781398 51.900485 
L 502.997673 45.547401 
L 503.213947 45.921112 
L 503.430221 47.83638 
L 503.646496 45.267118 
L 503.86277 45.967826 
L 504.079045 45.780971 
L 504.295319 43.258423 
L 504.511594 44.753266 
L 504.727868 45.080263 
L 504.944143 48.583802 
L 505.160417 49.704934 
L 505.376692 57.739717 
L 505.592966 60.168837 
L 505.809241 73.622427 
L 506.025515 74.743559 
L 506.241789 86.51545 
L 506.674338 79.788655 
L 506.890613 72.501294 
L 507.106887 72.594722 
L 507.323162 62.457816 
L 507.539436 66.568635 
L 507.755711 85.721314 
L 508.18826 88.617573 
L 508.404534 86.842447 
L 508.620808 79.041234 
L 508.837083 58.066714 
L 509.269632 43.35185 
L 509.485906 40.689161 
L 509.702181 40.829302 
L 509.918455 47.369242 
L 510.13473 46.808675 
L 510.351004 41.343155 
L 510.567279 46.995531 
L 511.216102 38.446896 
L 511.432376 41.623438 
L 511.648651 37.465905 
L 511.864925 39.568028 
L 512.0812 37.27905 
L 512.297474 37.04548 
L 512.513749 43.491992 
L 512.730023 44.286127 
L 513.162572 57.039009 
L 513.378847 58.533852 
L 514.02767 49.611507 
L 514.243944 42.651143 
L 514.460219 42.324146 
L 514.676493 44.1927 
L 514.892768 44.1927 
L 515.109042 39.334459 
L 515.325317 40.642447 
L 515.541591 37.232336 
L 515.757866 30.785824 
L 515.97414 31.393104 
L 516.190415 31.019393 
L 516.406689 31.533246 
L 517.055512 52.834762 
L 517.704336 65.821213 
L 518.136885 61.336684 
L 518.353159 63.11181 
L 518.569434 62.317674 
L 518.785708 55.96459 
L 519.218257 52.694621 
L 519.434531 49.237796 
L 519.650806 49.611507 
L 520.083355 53.955895 
L 520.732178 64.980364 
L 521.164727 58.533852 
L 521.81355 41.109585 
L 522.246099 33.962366 
L 522.462374 36.578342 
L 522.678648 36.998766 
L 522.894923 35.130212 
L 523.327472 37.933043 
L 523.976295 27.936279 
L 524.19257 26.534863 
L 524.841393 36.251345 
L 525.057667 34.896643 
L 525.273942 32.79452 
L 525.490216 25.88087 
L 525.706491 23.451749 
L 526.13904 16.724954 
L 526.571589 21.629909 
L 526.787863 22.190475 
L 527.004138 23.82546 
L 527.220412 30.598969 
L 527.436686 27.796138 
L 527.652961 28.543559 
L 527.869235 31.57996 
L 528.08551 31.112821 
L 528.301784 31.299676 
L 528.518059 32.327381 
L 528.950608 32.56095 
L 529.166882 30.365399 
L 529.383157 23.732032 
L 529.599431 24.713023 
L 529.815705 26.815147 
L 530.03198 23.638605 
L 530.248254 26.161153 
L 530.464529 31.159535 
L 530.680803 32.79452 
L 530.897078 29.571264 
L 531.113352 33.541941 
L 531.329627 32.280667 
L 531.97845 21.349626 
L 532.410999 22.143761 
L 532.627273 24.993306 
L 532.843548 23.405035 
L 533.059822 26.675005 
L 533.276097 27.188857 
L 533.492371 27.002002 
L 533.708646 24.759737 
L 533.92492 26.394722 
L 534.141195 23.451749 
L 534.357469 18.266512 
L 534.573744 17.238807 
L 535.222567 23.451749 
L 535.438841 22.424044 
L 535.655116 23.732032 
L 536.087665 22.751041 
L 536.303939 22.424044 
L 536.520214 26.768433 
L 536.952763 28.216562 
L 537.385312 25.927583 
L 537.601586 22.237189 
L 538.034135 24.572882 
L 538.250409 21.816764 
L 538.466684 20.78906 
L 538.682958 20.929201 
L 538.899233 22.6109 
L 539.115507 19.808069 
L 539.548056 25.507159 
L 539.764331 25.553873 
L 539.980605 20.088352 
L 540.19688 19.154075 
L 540.413154 21.489767 
L 540.629428 27.235571 
L 540.845703 26.067725 
L 541.278252 34.242649 
L 541.494526 32.280667 
L 541.710801 22.797755 
L 541.927075 23.124752 
L 542.359624 16.958524 
L 543.008447 35.083498 
L 543.224722 44.426269 
L 543.440996 47.509383 
L 543.657271 53.068332 
L 543.873545 55.684307 
L 544.08982 55.59088 
L 544.306094 51.339919 
L 544.522369 56.385015 
L 544.954918 48.957513 
L 545.171192 48.817371 
L 545.387467 51.993913 
L 545.820015 43.538706 
L 546.03629 40.969444 
L 546.252564 41.203013 
L 546.468839 35.690779 
L 546.685113 35.22364 
L 546.901388 33.028089 
L 547.117662 34.803215 
L 547.333937 29.711405 
L 547.550211 29.851547 
L 547.98276 22.984611 
L 548.199035 22.751041 
L 548.415309 26.581577 
L 548.631583 25.600586 
L 548.847858 27.235571 
L 549.064132 27.328999 
L 549.496681 22.237189 
L 549.92923 17.332235 
L 550.145505 18.032942 
L 550.361779 18.219798 
L 550.578054 17.238807 
L 550.794328 21.910192 
L 551.226877 25.974297 
L 551.443151 25.086734 
L 551.659426 25.04002 
L 551.8757 22.751041 
L 552.091975 25.086734 
L 552.308249 21.536481 
L 552.524524 21.116057 
L 552.957073 16.070961 
L 553.173347 16.211102 
L 553.605896 19.574499 
L 553.82217 19.854783 
L 554.254719 19.013933 
L 554.470994 19.434358 
L 554.687268 23.358322 
L 554.903543 24.619596 
L 555.119817 27.375713 
L 555.552366 25.507159 
L 555.768641 22.891183 
L 556.20119 24.199171 
L 556.633738 21.209484 
L 557.282562 13.314843 
L 557.715111 12.894419 
L 558.14766 17.098665 
L 558.580209 20.55549 
L 558.796483 23.82546 
L 559.012757 23.918888 
L 559.229032 22.143761 
L 559.445306 22.517472 
L 559.661581 20.929201 
L 559.877855 20.695632 
L 560.09413 21.489767 
L 560.310404 21.116057 
L 560.526679 23.21818 
L 560.742953 22.564186 
L 561.175502 17.051951 
L 561.391777 19.574499 
L 561.608051 17.098665 
L 561.824325 18.266512 
L 562.0406 16.771668 
L 562.256874 17.098665 
L 562.473149 15.650536 
L 562.689423 16.91181 
L 562.905698 21.16277 
L 563.121972 22.190475 
L 563.338247 21.910192 
L 563.554521 22.424044 
L 563.770796 20.55549 
L 563.98707 16.91181 
L 564.203345 19.527786 
L 564.419619 19.34093 
L 564.635893 18.686936 
L 564.852168 21.676623 
L 565.068442 20.275207 
L 565.284717 16.257816 
L 565.500991 16.818382 
L 565.717266 16.958524 
L 565.93354 14.669545 
L 566.149815 15.557108 
L 566.366089 19.294216 
L 566.582364 18.12637 
L 566.798638 20.18178 
L 567.231187 21.583195 
L 567.447461 17.659232 
L 567.663736 18.359939 
L 567.88001 15.276825 
L 568.096285 17.051951 
L 568.312559 17.659232 
L 568.745108 22.517472 
L 568.961383 22.237189 
L 569.177657 22.424044 
L 569.393932 21.209484 
L 569.610206 22.237189 
L 569.82648 20.321921 
L 570.042755 24.059029 
L 570.259029 19.94821 
L 570.475304 18.920506 
L 570.691578 19.294216 
L 570.907853 20.18178 
L 571.124127 19.294216 
L 571.340402 20.368635 
L 571.556676 22.143761 
L 572.421774 12.894419 
L 572.638048 11.82 
L 573.070597 14.949828 
L 573.286872 14.903114 
L 573.503146 17.799373 
L 573.719421 17.098665 
L 573.935695 17.986229 
L 574.15197 19.621213 
L 574.368244 20.368635 
L 574.584519 18.12637 
L 574.800793 21.209484 
L 575.233342 18.266512 
L 575.449616 18.73365 
L 575.665891 19.901496 
L 575.882165 16.771668 
L 576.09844 17.238807 
L 576.314714 13.735268 
L 576.530989 13.314843 
L 576.747263 15.416967 
L 576.963538 21.863478 
L 577.179812 21.536481 
L 577.396087 24.666309 
L 577.612361 23.918888 
L 577.828635 21.069343 
L 578.04491 14.949828 
L 578.261184 14.342548 
L 578.477459 12.660849 
L 578.693733 12.847705 
L 578.910008 17.612518 
L 579.126282 17.986229 
L 579.342557 19.527786 
L 579.558831 19.667927 
L 579.775106 20.18178 
L 579.99138 17.192093 
L 580.207654 17.846087 
L 580.423929 17.799373 
L 580.640203 16.117674 
L 580.856478 17.005238 
L 581.072752 15.510394 
L 581.289027 15.46368 
L 581.505301 13.87541 
L 581.93785 12.660849 
L 582.154125 13.408271 
L 582.370399 12.287139 
L 582.802948 17.145379 
L 583.019222 18.079656 
L 583.235497 16.631527 
L 583.451771 16.818382 
L 583.668046 15.416967 
L 583.88432 17.939515 
L 584.100595 15.884105 
L 584.316869 15.930819 
L 584.749418 19.107361 
L 584.965693 16.30453 
L 585.398242 18.827078 
L 585.614516 17.799373 
L 585.83079 14.996542 
L 586.047065 17.705945 
L 586.263339 16.117674 
L 586.479614 16.351244 
L 586.695888 14.576117 
L 586.912163 17.51909 
L 587.128437 15.930819 
L 587.344712 16.444671 
L 587.560986 14.529403 
L 587.777261 18.032942 
L 587.993535 17.425662 
L 588.209809 15.930819 
L 588.642358 18.266512 
L 589.291182 12.380566 
L 589.507456 13.408271 
L 589.723731 15.043256 
L 589.723731 15.043256 
" clip-path="url(#p20526747aa)" style="fill: none; stroke: #2ca02c; stroke-linecap: square"/>
   </g>
   <g id="patch_18">
    <path d="M 477.542169 104.22 
L 477.542169 7.2 
" style="fill: none; stroke: #000000; stroke-width: 0.8; stroke-linejoin: miter; stroke-linecap: square"/>
   </g>
   <g id="patch_19">
    <path d="M 612 104.22 
L 612 7.2 
" style="fill: none; stroke: #000000; stroke-width: 0.8; stroke-linejoin: miter; stroke-linecap: square"/>
   </g>
   <g id="patch_20">
    <path d="M 477.542169 104.22 
L 612 104.22 
" style="fill: none; stroke: #000000; stroke-width: 0.8; stroke-linejoin: miter; stroke-linecap: square"/>
   </g>
   <g id="patch_21">
    <path d="M 477.542169 7.2 
L 612 7.2 
" style="fill: none; stroke: #000000; stroke-width: 0.8; stroke-linejoin: miter; stroke-linecap: square"/>
   </g>
  </g>
  <g id="text_21">
   <!-- Episodes -->
   <g transform="translate(301.757812 128.16) scale(0.1 -0.1)">
    <defs>
     <path id="DejaVuSans-45" d="M 628 4666 
L 3578 4666 
L 3578 4134 
L 1259 4134 
L 1259 2753 
L 3481 2753 
L 3481 2222 
L 1259 2222 
L 1259 531 
L 3634 531 
L 3634 0 
L 628 0 
L 628 4666 
z
" transform="scale(0.015625)"/>
     <path id="DejaVuSans-70" d="M 1159 525 
L 1159 -1331 
L 581 -1331 
L 581 3500 
L 1159 3500 
L 1159 2969 
Q 1341 3281 1617 3432 
Q 1894 3584 2278 3584 
Q 2916 3584 3314 3078 
Q 3713 2572 3713 1747 
Q 3713 922 3314 415 
Q 2916 -91 2278 -91 
Q 1894 -91 1617 61 
Q 1341 213 1159 525 
z
M 3116 1747 
Q 3116 2381 2855 2742 
Q 2594 3103 2138 3103 
Q 1681 3103 1420 2742 
Q 1159 2381 1159 1747 
Q 1159 1113 1420 752 
Q 1681 391 2138 391 
Q 2594 391 2855 752 
Q 3116 1113 3116 1747 
z
" transform="scale(0.015625)"/>
     <path id="DejaVuSans-69" d="M 603 3500 
L 1178 3500 
L 1178 0 
L 603 0 
L 603 3500 
z
M 603 4863 
L 1178 4863 
L 1178 4134 
L 603 4134 
L 603 4863 
z
" transform="scale(0.015625)"/>
     <path id="DejaVuSans-73" d="M 2834 3397 
L 2834 2853 
Q 2591 2978 2328 3040 
Q 2066 3103 1784 3103 
Q 1356 3103 1142 2972 
Q 928 2841 928 2578 
Q 928 2378 1081 2264 
Q 1234 2150 1697 2047 
L 1894 2003 
Q 2506 1872 2764 1633 
Q 3022 1394 3022 966 
Q 3022 478 2636 193 
Q 2250 -91 1575 -91 
Q 1294 -91 989 -36 
Q 684 19 347 128 
L 347 722 
Q 666 556 975 473 
Q 1284 391 1588 391 
Q 1994 391 2212 530 
Q 2431 669 2431 922 
Q 2431 1156 2273 1281 
Q 2116 1406 1581 1522 
L 1381 1569 
Q 847 1681 609 1914 
Q 372 2147 372 2553 
Q 372 3047 722 3315 
Q 1072 3584 1716 3584 
Q 2034 3584 2315 3537 
Q 2597 3491 2834 3397 
z
" transform="scale(0.015625)"/>
     <path id="DejaVuSans-6f" d="M 1959 3097 
Q 1497 3097 1228 2736 
Q 959 2375 959 1747 
Q 959 1119 1226 758 
Q 1494 397 1959 397 
Q 2419 397 2687 759 
Q 2956 1122 2956 1747 
Q 2956 2369 2687 2733 
Q 2419 3097 1959 3097 
z
M 1959 3584 
Q 2709 3584 3137 3096 
Q 3566 2609 3566 1747 
Q 3566 888 3137 398 
Q 2709 -91 1959 -91 
Q 1206 -91 779 398 
Q 353 888 353 1747 
Q 353 2609 779 3096 
Q 1206 3584 1959 3584 
z
" transform="scale(0.015625)"/>
     <path id="DejaVuSans-64" d="M 2906 2969 
L 2906 4863 
L 3481 4863 
L 3481 0 
L 2906 0 
L 2906 525 
Q 2725 213 2448 61 
Q 2172 -91 1784 -91 
Q 1150 -91 751 415 
Q 353 922 353 1747 
Q 353 2572 751 3078 
Q 1150 3584 1784 3584 
Q 2172 3584 2448 3432 
Q 2725 3281 2906 2969 
z
M 947 1747 
Q 947 1113 1208 752 
Q 1469 391 1925 391 
Q 2381 391 2643 752 
Q 2906 1113 2906 1747 
Q 2906 2381 2643 2742 
Q 2381 3103 1925 3103 
Q 1469 3103 1208 2742 
Q 947 2381 947 1747 
z
" transform="scale(0.015625)"/>
     <path id="DejaVuSans-65" d="M 3597 1894 
L 3597 1613 
L 953 1613 
Q 991 1019 1311 708 
Q 1631 397 2203 397 
Q 2534 397 2845 478 
Q 3156 559 3463 722 
L 3463 178 
Q 3153 47 2828 -22 
Q 2503 -91 2169 -91 
Q 1331 -91 842 396 
Q 353 884 353 1716 
Q 353 2575 817 3079 
Q 1281 3584 2069 3584 
Q 2775 3584 3186 3129 
Q 3597 2675 3597 1894 
z
M 3022 2063 
Q 3016 2534 2758 2815 
Q 2500 3097 2075 3097 
Q 1594 3097 1305 2825 
Q 1016 2553 972 2059 
L 3022 2063 
z
" transform="scale(0.015625)"/>
    </defs>
    <use xlink:href="#DejaVuSans-45"/>
    <use xlink:href="#DejaVuSans-70" x="63.183594"/>
    <use xlink:href="#DejaVuSans-69" x="126.660156"/>
    <use xlink:href="#DejaVuSans-73" x="154.443359"/>
    <use xlink:href="#DejaVuSans-6f" x="206.542969"/>
    <use xlink:href="#DejaVuSans-64" x="267.724609"/>
    <use xlink:href="#DejaVuSans-65" x="331.201172"/>
    <use xlink:href="#DejaVuSans-73" x="392.724609"/>
   </g>
  </g>
  <g id="text_22">
   <!--        Normalized  -->
   <g transform="translate(14.798438 107.936719) rotate(-90) scale(0.1 -0.1)">
    <defs>
     <path id="DejaVuSans-20" transform="scale(0.015625)"/>
     <path id="DejaVuSans-4e" d="M 628 4666 
L 1478 4666 
L 3547 763 
L 3547 4666 
L 4159 4666 
L 4159 0 
L 3309 0 
L 1241 3903 
L 1241 0 
L 628 0 
L 628 4666 
z
" transform="scale(0.015625)"/>
     <path id="DejaVuSans-72" d="M 2631 2963 
Q 2534 3019 2420 3045 
Q 2306 3072 2169 3072 
Q 1681 3072 1420 2755 
Q 1159 2438 1159 1844 
L 1159 0 
L 581 0 
L 581 3500 
L 1159 3500 
L 1159 2956 
Q 1341 3275 1631 3429 
Q 1922 3584 2338 3584 
Q 2397 3584 2469 3576 
Q 2541 3569 2628 3553 
L 2631 2963 
z
" transform="scale(0.015625)"/>
     <path id="DejaVuSans-6d" d="M 3328 2828 
Q 3544 3216 3844 3400 
Q 4144 3584 4550 3584 
Q 5097 3584 5394 3201 
Q 5691 2819 5691 2113 
L 5691 0 
L 5113 0 
L 5113 2094 
Q 5113 2597 4934 2840 
Q 4756 3084 4391 3084 
Q 3944 3084 3684 2787 
Q 3425 2491 3425 1978 
L 3425 0 
L 2847 0 
L 2847 2094 
Q 2847 2600 2669 2842 
Q 2491 3084 2119 3084 
Q 1678 3084 1418 2786 
Q 1159 2488 1159 1978 
L 1159 0 
L 581 0 
L 581 3500 
L 1159 3500 
L 1159 2956 
Q 1356 3278 1631 3431 
Q 1906 3584 2284 3584 
Q 2666 3584 2933 3390 
Q 3200 3197 3328 2828 
z
" transform="scale(0.015625)"/>
     <path id="DejaVuSans-61" d="M 2194 1759 
Q 1497 1759 1228 1600 
Q 959 1441 959 1056 
Q 959 750 1161 570 
Q 1363 391 1709 391 
Q 2188 391 2477 730 
Q 2766 1069 2766 1631 
L 2766 1759 
L 2194 1759 
z
M 3341 1997 
L 3341 0 
L 2766 0 
L 2766 531 
Q 2569 213 2275 61 
Q 1981 -91 1556 -91 
Q 1019 -91 701 211 
Q 384 513 384 1019 
Q 384 1609 779 1909 
Q 1175 2209 1959 2209 
L 2766 2209 
L 2766 2266 
Q 2766 2663 2505 2880 
Q 2244 3097 1772 3097 
Q 1472 3097 1187 3025 
Q 903 2953 641 2809 
L 641 3341 
Q 956 3463 1253 3523 
Q 1550 3584 1831 3584 
Q 2591 3584 2966 3190 
Q 3341 2797 3341 1997 
z
" transform="scale(0.015625)"/>
     <path id="DejaVuSans-6c" d="M 603 4863 
L 1178 4863 
L 1178 0 
L 603 0 
L 603 4863 
z
" transform="scale(0.015625)"/>
     <path id="DejaVuSans-7a" d="M 353 3500 
L 3084 3500 
L 3084 2975 
L 922 459 
L 3084 459 
L 3084 0 
L 275 0 
L 275 525 
L 2438 3041 
L 353 3041 
L 353 3500 
z
" transform="scale(0.015625)"/>
    </defs>
    <use xlink:href="#DejaVuSans-20"/>
    <use xlink:href="#DejaVuSans-20" x="31.787109"/>
    <use xlink:href="#DejaVuSans-20" x="63.574219"/>
    <use xlink:href="#DejaVuSans-20" x="95.361328"/>
    <use xlink:href="#DejaVuSans-20" x="127.148438"/>
    <use xlink:href="#DejaVuSans-20" x="158.935547"/>
    <use xlink:href="#DejaVuSans-20" x="190.722656"/>
    <use xlink:href="#DejaVuSans-4e" x="222.509766"/>
    <use xlink:href="#DejaVuSans-6f" x="297.314453"/>
    <use xlink:href="#DejaVuSans-72" x="358.496094"/>
    <use xlink:href="#DejaVuSans-6d" x="397.859375"/>
    <use xlink:href="#DejaVuSans-61" x="495.271484"/>
    <use xlink:href="#DejaVuSans-6c" x="556.550781"/>
    <use xlink:href="#DejaVuSans-69" x="584.333984"/>
    <use xlink:href="#DejaVuSans-7a" x="612.117188"/>
    <use xlink:href="#DejaVuSans-65" x="664.607422"/>
    <use xlink:href="#DejaVuSans-64" x="726.130859"/>
    <use xlink:href="#DejaVuSans-20" x="789.607422"/>
   </g>
   <!--  Cumulative Reward -->
   <g transform="translate(25.99625 107.936719) rotate(-90) scale(0.1 -0.1)">
    <defs>
     <path id="DejaVuSans-43" d="M 4122 4306 
L 4122 3641 
Q 3803 3938 3442 4084 
Q 3081 4231 2675 4231 
Q 1875 4231 1450 3742 
Q 1025 3253 1025 2328 
Q 1025 1406 1450 917 
Q 1875 428 2675 428 
Q 3081 428 3442 575 
Q 3803 722 4122 1019 
L 4122 359 
Q 3791 134 3420 21 
Q 3050 -91 2638 -91 
Q 1578 -91 968 557 
Q 359 1206 359 2328 
Q 359 3453 968 4101 
Q 1578 4750 2638 4750 
Q 3056 4750 3426 4639 
Q 3797 4528 4122 4306 
z
" transform="scale(0.015625)"/>
     <path id="DejaVuSans-75" d="M 544 1381 
L 544 3500 
L 1119 3500 
L 1119 1403 
Q 1119 906 1312 657 
Q 1506 409 1894 409 
Q 2359 409 2629 706 
Q 2900 1003 2900 1516 
L 2900 3500 
L 3475 3500 
L 3475 0 
L 2900 0 
L 2900 538 
Q 2691 219 2414 64 
Q 2138 -91 1772 -91 
Q 1169 -91 856 284 
Q 544 659 544 1381 
z
M 1991 3584 
L 1991 3584 
z
" transform="scale(0.015625)"/>
     <path id="DejaVuSans-74" d="M 1172 4494 
L 1172 3500 
L 2356 3500 
L 2356 3053 
L 1172 3053 
L 1172 1153 
Q 1172 725 1289 603 
Q 1406 481 1766 481 
L 2356 481 
L 2356 0 
L 1766 0 
Q 1100 0 847 248 
Q 594 497 594 1153 
L 594 3053 
L 172 3053 
L 172 3500 
L 594 3500 
L 594 4494 
L 1172 4494 
z
" transform="scale(0.015625)"/>
     <path id="DejaVuSans-76" d="M 191 3500 
L 800 3500 
L 1894 563 
L 2988 3500 
L 3597 3500 
L 2284 0 
L 1503 0 
L 191 3500 
z
" transform="scale(0.015625)"/>
     <path id="DejaVuSans-52" d="M 2841 2188 
Q 3044 2119 3236 1894 
Q 3428 1669 3622 1275 
L 4263 0 
L 3584 0 
L 2988 1197 
Q 2756 1666 2539 1819 
Q 2322 1972 1947 1972 
L 1259 1972 
L 1259 0 
L 628 0 
L 628 4666 
L 2053 4666 
Q 2853 4666 3247 4331 
Q 3641 3997 3641 3322 
Q 3641 2881 3436 2590 
Q 3231 2300 2841 2188 
z
M 1259 4147 
L 1259 2491 
L 2053 2491 
Q 2509 2491 2742 2702 
Q 2975 2913 2975 3322 
Q 2975 3731 2742 3939 
Q 2509 4147 2053 4147 
L 1259 4147 
z
" transform="scale(0.015625)"/>
     <path id="DejaVuSans-77" d="M 269 3500 
L 844 3500 
L 1563 769 
L 2278 3500 
L 2956 3500 
L 3675 769 
L 4391 3500 
L 4966 3500 
L 4050 0 
L 3372 0 
L 2619 2869 
L 1863 0 
L 1184 0 
L 269 3500 
z
" transform="scale(0.015625)"/>
    </defs>
    <use xlink:href="#DejaVuSans-20"/>
    <use xlink:href="#DejaVuSans-43" x="31.787109"/>
    <use xlink:href="#DejaVuSans-75" x="101.611328"/>
    <use xlink:href="#DejaVuSans-6d" x="164.990234"/>
    <use xlink:href="#DejaVuSans-75" x="262.402344"/>
    <use xlink:href="#DejaVuSans-6c" x="325.78125"/>
    <use xlink:href="#DejaVuSans-61" x="353.564453"/>
    <use xlink:href="#DejaVuSans-74" x="414.84375"/>
    <use xlink:href="#DejaVuSans-69" x="454.052734"/>
    <use xlink:href="#DejaVuSans-76" x="481.835938"/>
    <use xlink:href="#DejaVuSans-65" x="541.015625"/>
    <use xlink:href="#DejaVuSans-20" x="602.539062"/>
    <use xlink:href="#DejaVuSans-52" x="634.326172"/>
    <use xlink:href="#DejaVuSans-65" x="699.308594"/>
    <use xlink:href="#DejaVuSans-77" x="760.832031"/>
    <use xlink:href="#DejaVuSans-61" x="842.619141"/>
    <use xlink:href="#DejaVuSans-72" x="903.898438"/>
    <use xlink:href="#DejaVuSans-64" x="943.261719"/>
   </g>
  </g>
 </g>
 <defs>
  <clipPath id="pca11c2e32c">
   <rect x="54" y="7.2" width="134.457831" height="97.02"/>
  </clipPath>
  <clipPath id="pfc5e85e7aa">
   <rect x="195.180723" y="7.2" width="134.457831" height="97.02"/>
  </clipPath>
  <clipPath id="pc3563f04d6">
   <rect x="336.361446" y="7.2" width="134.457831" height="97.02"/>
  </clipPath>
  <clipPath id="p20526747aa">
   <rect x="477.542169" y="7.2" width="134.457831" height="97.02"/>
  </clipPath>
 </defs>
</svg>
